{
DisplayStrings = (
/fd_collapse,
/fd_expand
);
copyright = "2013 Dimagi, Inc.";
customParameters = (
{
name = glyphOrder;
value = (
    ".notdef",
    uni0000,
    uni000D,
    space,
    uni25FC,
    "commcare_flower",
    "qtype_text",
    "qtype_numeric",
    "qtype_hidden_value",
    "qtype_calculation",
    "qtype_variable",
    "qtype_single_select",
    "qtype_multi_select",
    "qtype_decimal",
    "qtype_long",
    "qtyle_datetime",
    "qtype_audio_capture",
    "qtype_android_intent",
    "qtype_signature",
    "dashboard_apps",
    commtrack,
    "qtype_multi_select_box",
    "qtype_single_select_circle",
    "dashboard_reports",
    "dashboard_data",
    "dashboard_users",
    "dashboard_settings",
    "dashboard_help",
    "dashboard_exchange",
    "dashboard_messaging",
    "qtype_balance",
    "dashboard_chart",
    "dashboard_forms",
    "dashboard_userreport",
    "dashboard_datatable",
    "dashboard_pie",
    "dashboard_survey",
    "dashboard_casemgt",
    "dashboard_blankform",
    "qtype_external_case",
    "qtype_external_case_data",
    "fd_expand",
    "fd_collapse"
);
}
);
date = "2015-06-18 13:46:07 +0000";
designer = "Biyeun Buczyk";
designerURL = "http://biyeun.com";
familyName = "CommCareHQ Font";
fontMaster = (
{
ascender = 1755;
capHeight = 0;
customParameters = (
{
name = typoAscender;
value = 1755;
},
{
name = typoDescender;
value = "-293";
},
{
name = typoLineGap;
value = 0;
},
{
name = underlinePosition;
value = "-260";
},
{
name = underlineThickness;
value = 57;
}
);
descender = "-293";
id = "459508BE-3C3A-46DA-A777-BF75D91E99BF";
weightValue = 400;
widthValue = 5;
xHeight = 0;
}
);
glyphs = (
{
glyphname = commcare_flower;
layers = (
{
layerId = "459508BE-3C3A-46DA-A777-BF75D91E99BF";
name = Regular;
paths = (
{
closed = 1;
nodes = (
"235 1454 OFFCURVE",
"206 1451 OFFCURVE",
"175 1454 CURVE",
"150 1455 OFFCURVE",
"124 1466 OFFCURVE",
"97.9999 1488 CURVE",
"71 1501 OFFCURVE",
"52 1519 OFFCURVE",
"39 1543 CURVE",
"0 1599 OFFCURVE",
"-5 1688 OFFCURVE",
"40 1768 CURVE",
"57 1791 OFFCURVE",
"76 1809 OFFCURVE",
"95.9999 1822 CURVE",
"131 1849 OFFCURVE",
"172 1863 OFFCURVE",
"219 1863 CURVE",
"226 1864 LINE SMOOTH",
"233 1865 OFFCURVE",
"239 1866 OFFCURVE",
"245 1866 CURVE SMOOTH",
"252 1866 OFFCURVE",
"257 1865 OFFCURVE",
"262 1863 CURVE",
"294 1857 OFFCURVE",
"322 1843 OFFCURVE",
"345 1822 CURVE",
"366 1809 OFFCURVE",
"383 1789 OFFCURVE",
"397 1762 CURVE",
"415 1732 OFFCURVE",
"424 1696 OFFCURVE",
"424 1653 CURVE",
"421 1636 OFFCURVE",
"410 1608 OFFCURVE",
"391 1568 CURVE",
"372 1540 OFFCURVE",
"352 1517 OFFCURVE",
"331 1499 CURVE",
"326 1496 OFFCURVE",
"318 1492 OFFCURVE",
"307 1485 CURVE SMOOTH",
"288 1472 OFFCURVE",
"273 1466 OFFCURVE",
"262 1465 CURVE"
);
},
{
closed = 1;
nodes = (
"1622 1667 OFFCURVE",
"1630 1720 OFFCURVE",
"1665 1766 CURVE",
"1674 1791 OFFCURVE",
"1693 1809 OFFCURVE",
"1722 1822 CURVE",
"1741 1840 OFFCURVE",
"1773 1852 OFFCURVE",
"1818 1858 CURVE",
"1868 1861 OFFCURVE",
"1910 1848 OFFCURVE",
"1944 1819 CURVE",
"2009 1778 OFFCURVE",
"2041 1720 OFFCURVE",
"2041 1645 CURVE SMOOTH",
"2041 1607 LINE",
"2031 1570 OFFCURVE",
"2018 1541 OFFCURVE",
"2002 1518 CURVE",
"1989 1505 OFFCURVE",
"1968 1487 OFFCURVE",
"1939 1462 CURVE",
"1921 1453 OFFCURVE",
"1902 1448 OFFCURVE",
"1883 1446 CURVE",
"1868 1438 OFFCURVE",
"1851 1438 OFFCURVE",
"1832 1446 CURVE",
"1797 1446 OFFCURVE",
"1768 1453 OFFCURVE",
"1746 1467 CURVE",
"1740 1473 OFFCURVE",
"1734 1478 OFFCURVE",
"1728 1483 CURVE SMOOTH",
"1719 1490 OFFCURVE",
"1712 1495 OFFCURVE",
"1708 1500 CURVE",
"1694 1511 OFFCURVE",
"1683 1524 OFFCURVE",
"1675 1539 CURVE",
"1661 1553 OFFCURVE",
"1650 1576 OFFCURVE",
"1641 1607 CURVE SMOOTH"
);
},
{
closed = 1;
nodes = (
"262 1093 LINE",
"262 1095 OFFCURVE",
"259 1096 OFFCURVE",
"253 1097 CURVE",
"196 1179 OFFCURVE",
"147 1282 OFFCURVE",
"104 1407 CURVE",
"119 1407 OFFCURVE",
"143 1406 OFFCURVE",
"177 1404 CURVE",
"207 1401 OFFCURVE",
"232 1400 OFFCURVE",
"253 1400 CURVE SMOOTH",
"262 1400 LINE SMOOTH",
"267 1400 OFFCURVE",
"270 1401 OFFCURVE",
"270 1402 CURVE",
"315 1402 OFFCURVE",
"352 1417 OFFCURVE",
"383 1446 CURVE",
"454 1493 OFFCURVE",
"482 1577 OFFCURVE",
"489 1650 CURVE SMOOTH",
"492 1682 OFFCURVE",
"493 1721 OFFCURVE",
"493 1768 CURVE",
"756 1700 OFFCURVE",
"968.999 1461 OFFCURVE",
"1021 1186 CURVE SMOOTH",
"1028 1151 OFFCURVE",
"1032 1130 OFFCURVE",
"1034 1123 CURVE",
"1039 1090 OFFCURVE",
"1043 1070 OFFCURVE",
"1044 1064 CURVE SMOOTH",
"1051 1019 OFFCURVE",
"1055 977.999 OFFCURVE",
"1055 939 CURVE SMOOTH",
"1055 914 OFFCURVE",
"1054 892 OFFCURVE",
"1051 874 CURVE",
"1042 889 OFFCURVE",
"1018 937 OFFCURVE",
"977.999 1016 CURVE SMOOTH",
"940 1093 OFFCURVE",
"904 1149 OFFCURVE",
"871 1185 CURVE SMOOTH",
"842 1216 OFFCURVE",
"816 1242 OFFCURVE",
"793 1263 CURVE SMOOTH",
"732 1321 OFFCURVE",
"673 1360 OFFCURVE",
"615 1381 CURVE SMOOTH",
"564 1400 OFFCURVE",
"532 1407 OFFCURVE",
"495 1396 CURVE SMOOTH",
"476 1390 OFFCURVE",
"461 1378 OFFCURVE",
"448 1360 CURVE",
"415 1291 OFFCURVE",
"415 1227 OFFCURVE",
"450 1167 CURVE",
"456 1164 OFFCURVE",
"466 1159 OFFCURVE",
"479 1154 CURVE SMOOTH",
"503 1145 OFFCURVE",
"551 1132 OFFCURVE",
"615 1119 CURVE",
"634 1046 OFFCURVE",
"590 973.999 OFFCURVE",
"518 944 CURVE SMOOTH",
"482 929 OFFCURVE",
"447 927 OFFCURVE",
"413 939 CURVE",
"354 983.999 OFFCURVE",
"306 1031 OFFCURVE",
"270 1082 CURVE SMOOTH"
);
},
{
closed = 1;
nodes = (
"1269 1607 LINE",
"1275 1611 LINE SMOOTH",
"1346 1657 OFFCURVE",
"1449 1707 OFFCURVE",
"1585 1762 CURVE",
"1585 1742 OFFCURVE",
"1584 1718 OFFCURVE",
"1581 1689 CURVE SMOOTH",
"1578 1660 OFFCURVE",
"1577 1635 OFFCURVE",
"1577 1616 CURVE SMOOTH",
"1577 1597 LINE",
"1580 1546 OFFCURVE",
"1593 1508 OFFCURVE",
"1618 1483 CURVE",
"1687 1380 OFFCURVE",
"1817 1368 OFFCURVE",
"1944 1367 CURVE",
"1909 1238 OFFCURVE",
"1838 1125 OFFCURVE",
"1730 1029 CURVE SMOOTH",
"1647 957 OFFCURVE",
"1539 898 OFFCURVE",
"1442 867 CURVE SMOOTH",
"1345 835 OFFCURVE",
"1238 812 OFFCURVE",
"1159 812 CURVE SMOOTH",
"1120 812 OFFCURVE",
"1084 813 OFFCURVE",
"1051 816 CURVE",
"1072 831 OFFCURVE",
"1121 857 OFFCURVE",
"1198 895 CURVE SMOOTH",
"1273 931 OFFCURVE",
"1327 965 OFFCURVE",
"1360 996.999 CURVE",
"1481 1106 OFFCURVE",
"1574 1212 OFFCURVE",
"1574 1355 CURVE",
"1581 1382 OFFCURVE",
"1568 1402 OFFCURVE",
"1535 1414 CURVE",
"1508 1431 OFFCURVE",
"1477 1440 OFFCURVE",
"1442 1440 CURVE SMOOTH",
"1407 1440 OFFCURVE",
"1374 1431 OFFCURVE",
"1345 1414 CURVE",
"1319 1369 OFFCURVE",
"1304 1315 OFFCURVE",
"1301 1254 CURVE",
"1222 1230 OFFCURVE",
"1148 1274 OFFCURVE",
"1120 1346 CURVE SMOOTH",
"1106 1382 OFFCURVE",
"1106 1418 OFFCURVE",
"1119 1454 CURVE",
"1150 1505 OFFCURVE",
"1196 1553 OFFCURVE",
"1256 1597 CURVE SMOOTH"
);
},
{
closed = 1;
nodes = (
"778 87 LINE",
"777 86 OFFCURVE",
"770 82 OFFCURVE",
"767 82 CURVE",
"684 23 OFFCURVE",
"581 -29 OFFCURVE",
"459 -73 CURVE",
"459 -56 OFFCURVE",
"460 -31 OFFCURVE",
"462 2 CURVE SMOOTH",
"464 75 LINE",
"464 93.9999 LINE",
"460 174 OFFCURVE",
"398 276 OFFCURVE",
"273 301 CURVE SMOOTH",
"222 310 OFFCURVE",
"163 315 OFFCURVE",
"95.9999 315 CURVE",
"175 584 OFFCURVE",
"403 790 OFFCURVE",
"678 843 CURVE",
"730 855 OFFCURVE",
"782 865 OFFCURVE",
"834 874 CURVE SMOOTH",
"861 878 OFFCURVE",
"879 880 OFFCURVE",
"900 880 CURVE SMOOTH",
"921 880 OFFCURVE",
"928 880 OFFCURVE",
"958 877 CURVE SMOOTH",
"992.999 874 LINE",
"971.999 860 OFFCURVE",
"924 834 OFFCURVE",
"849 797 CURVE SMOOTH",
"698 721 OFFCURVE",
"591 621 OFFCURVE",
"523 510 CURVE SMOOTH",
"488 455 OFFCURVE",
"471 395 OFFCURVE",
"471 331 CURVE",
"458 294 OFFCURVE",
"526 246 OFFCURVE",
"599 247 CURVE SMOOTH",
"635 248 OFFCURVE",
"667 258 OFFCURVE",
"694 278 CURVE",
"702 287 OFFCURVE",
"708 296 OFFCURVE",
"713 304 CURVE",
"718 313 OFFCURVE",
"725 335 OFFCURVE",
"733 368 CURVE",
"738 394 OFFCURVE",
"741 417 OFFCURVE",
"743 437 CURVE",
"820 458 OFFCURVE",
"896 414 OFFCURVE",
"924 342 CURVE SMOOTH",
"938 305 OFFCURVE",
"938 269 OFFCURVE",
"925 233 CURVE",
"886 182 OFFCURVE",
"839 135 OFFCURVE",
"782 93.9999 CURVE"
);
},
{
closed = 1;
nodes = (
"1779 597 LINE",
"1779 594 OFFCURVE",
"1782 590 OFFCURVE",
"1787 587 CURVE",
"1834 522 OFFCURVE",
"1885 420 OFFCURVE",
"1939 279 CURVE",
"1926 279 OFFCURVE",
"1901 281 OFFCURVE",
"1864 284 CURVE SMOOTH",
"1826 287 OFFCURVE",
"1800 289 OFFCURVE",
"1787 289 CURVE SMOOTH",
"1774 289 LINE",
"1727 286 OFFCURVE",
"1687 271 OFFCURVE",
"1655 245 CURVE",
"1570 181 OFFCURVE",
"1554 112 OFFCURVE",
"1543 -79 CURVE",
"1283 -7 OFFCURVE",
"1078 223 OFFCURVE",
"1021 499 CURVE SMOOTH",
"1014 537 LINE SMOOTH",
"1013 542 OFFCURVE",
"1011 555 OFFCURVE",
"1007 578 CURVE SMOOTH",
"1005 592 LINE",
"1003 601 OFFCURVE",
"1001 609 OFFCURVE",
"999.999 616 CURVE SMOOTH",
"993.999 658 LINE SMOOTH",
"990.999 678 OFFCURVE",
"987.999 717 OFFCURVE",
"987.999 738 CURVE SMOOTH",
"987.999 769 OFFCURVE",
"989.999 795 OFFCURVE",
"992.999 816 CURVE",
"1009 789 OFFCURVE",
"1027 755 OFFCURVE",
"1046 714 CURVE SMOOTH",
"1095 612 OFFCURVE",
"1138 542 OFFCURVE",
"1175 504 CURVE SMOOTH",
"1282 388 OFFCURVE",
"1393 290 OFFCURVE",
"1529 290 CURVE",
"1552 287 OFFCURVE",
"1580 304 OFFCURVE",
"1589 321 CURVE SMOOTH",
"1622 382 OFFCURVE",
"1622 462 OFFCURVE",
"1587 518 CURVE",
"1574 527 OFFCURVE",
"1557 536 OFFCURVE",
"1534 544 CURVE SMOOTH",
"1508 553 OFFCURVE",
"1472 559 OFFCURVE",
"1427 562 CURVE",
"1406 639 OFFCURVE",
"1449 717 OFFCURVE",
"1521 746 CURVE SMOOTH",
"1557 761 OFFCURVE",
"1593 762 OFFCURVE",
"1630 749 CURVE",
"1687 712 OFFCURVE",
"1735 664 OFFCURVE",
"1774 605 CURVE SMOOTH"
);
},
{
closed = 1;
nodes = (
"408 48 OFFCURVE",
"410 17 OFFCURVE",
"405 -6 CURVE",
"404 -19 OFFCURVE",
"396 -43 OFFCURVE",
"379 -77 CURVE",
"361 -102 OFFCURVE",
"341 -124 OFFCURVE",
"320 -143 CURVE",
"279 -158 OFFCURVE",
"249 -166 OFFCURVE",
"231 -167 CURVE",
"136 -176 OFFCURVE",
"66 -126 OFFCURVE",
"39 -77 CURVE",
"13 -38 OFFCURVE",
"0 2 OFFCURVE",
"0 42 CURVE",
"5 87 LINE SMOOTH",
"12 144 OFFCURVE",
"37 174 OFFCURVE",
"104 219 CURVE",
"128 232 OFFCURVE",
"147 238 OFFCURVE",
"160 239 CURVE",
"171 243 OFFCURVE",
"189 245 OFFCURVE",
"214 245 CURVE",
"245 239 OFFCURVE",
"270 227 OFFCURVE",
"291 210 CURVE",
"350 187 OFFCURVE",
"388 124 OFFCURVE",
"397 87 CURVE"
);
},
{
closed = 1;
nodes = (
"1815 230 OFFCURVE",
"1845 234 OFFCURVE",
"1870 229 CURVE",
"1897 226 OFFCURVE",
"1921 217 OFFCURVE",
"1942 200 CURVE",
"1987 180 OFFCURVE",
"2028 118 OFFCURVE",
"2032 50 CURVE SMOOTH",
"2036 -13 OFFCURVE",
"2012 -68 OFFCURVE",
"1991 -93.9999 CURVE SMOOTH",
"1980 -107 OFFCURVE",
"1965 -124 OFFCURVE",
"1944 -143 CURVE",
"1901 -166 OFFCURVE",
"1862 -178 OFFCURVE",
"1827 -178 CURVE SMOOTH",
"1818 -178 LINE SMOOTH",
"1801 -178 OFFCURVE",
"1788 -176 OFFCURVE",
"1779 -171 CURVE",
"1752 -167 OFFCURVE",
"1724 -155 OFFCURVE",
"1693 -135 CURVE",
"1668 -110 OFFCURVE",
"1651 -90 OFFCURVE",
"1641 -73 CURVE",
"1623 -36 OFFCURVE",
"1617 -0.999999 OFFCURVE",
"1622 34 CURVE",
"1622 91 OFFCURVE",
"1637 112 OFFCURVE",
"1710 189 CURVE SMOOTH",
"1711 190 OFFCURVE",
"1716 192 OFFCURVE",
"1725 196 CURVE",
"1734 199 OFFCURVE",
"1741 202 OFFCURVE",
"1747 205 CURVE",
"1752 208 OFFCURVE",
"1763 212 OFFCURVE",
"1779 219 CURVE"
);
}
);
width = 2042;
}
);
unicode = F000;
},
{
glyphname = qtype_text;
layers = (
{
layerId = "459508BE-3C3A-46DA-A777-BF75D91E99BF";
name = Regular;
paths = (
{
closed = 1;
nodes = (
"696 467 LINE SMOOTH",
"696 444 OFFCURVE",
"694 420 OFFCURVE",
"691 397 CURVE",
"683 356 OFFCURVE",
"674 329 OFFCURVE",
"665 314 CURVE SMOOTH",
"662 309 OFFCURVE",
"659 305 OFFCURVE",
"655 301 CURVE",
"652 297 OFFCURVE",
"644 287 OFFCURVE",
"641 285 CURVE",
"640 284 OFFCURVE",
"638 281 OFFCURVE",
"635 278 CURVE",
"630 271 OFFCURVE",
"629 270 OFFCURVE",
"623 266 CURVE",
"617 261 OFFCURVE",
"613 258 OFFCURVE",
"606 254 CURVE",
"599 249 OFFCURVE",
"591 244 OFFCURVE",
"582 239 CURVE SMOOTH",
"555 224 OFFCURVE",
"519 206 OFFCURVE",
"472 184 CURVE",
"339 143 LINE",
"339 -117 LINE",
"1718 -117 LINE",
"1718 143 LINE",
"1576 184 LINE",
"1513 213 OFFCURVE",
"1470 235 OFFCURVE",
"1449 248 CURVE SMOOTH",
"1409 273 OFFCURVE",
"1398 287 OFFCURVE",
"1375 328 CURVE SMOOTH",
"1359 357 OFFCURVE",
"1351 403 OFFCURVE",
"1351 467 CURVE SMOOTH",
"1351 1368 LINE SMOOTH",
"1351 1408 OFFCURVE",
"1355 1471 OFFCURVE",
"1363 1557 CURVE",
"1539 1557 LINE",
"1596 1553 OFFCURVE",
"1635 1522 OFFCURVE",
"1650 1503 CURVE SMOOTH",
"1709 1426 OFFCURVE",
"1749 1346 OFFCURVE",
"1797 1237 CURVE",
"1822 1168 LINE",
"2047 1168 LINE",
"2047 1931 LINE",
"0 1931 LINE",
"0 1168 LINE",
"243 1168 LINE",
"266 1237 LINE",
"347 1408 OFFCURVE",
"382 1465 OFFCURVE",
"403 1489 CURVE",
"407 1493 OFFCURVE",
"412 1499 OFFCURVE",
"418 1506 CURVE",
"423 1513 OFFCURVE",
"427 1517 OFFCURVE",
"428 1518 CURVE",
"444 1538 OFFCURVE",
"484 1557 OFFCURVE",
"533 1557 CURVE SMOOTH",
"690 1557 LINE",
"694 1457 OFFCURVE",
"696 1394 OFFCURVE",
"696 1368 CURVE SMOOTH"
);
}
);
width = 2046;
}
);
unicode = F001;
},
{
glyphname = qtype_numeric;
layers = (
{
layerId = "459508BE-3C3A-46DA-A777-BF75D91E99BF";
name = Regular;
paths = (
{
closed = 1;
nodes = (
"229 -117 LINE",
"1467 -117 LINE",
"1467 342 LINE",
"1138 342 LINE",
"1138 1931 LINE",
"726 1931 LINE",
"584 1797 OFFCURVE",
"418 1692 OFFCURVE",
"229 1615 CURVE",
"229 1199 LINE",
"346 1199 OFFCURVE",
"380 1206 OFFCURVE",
"447 1242 CURVE SMOOTH",
"547 1299 LINE SMOOTH",
"590 1323 OFFCURVE",
"629 1346 OFFCURVE",
"662 1367 CURVE",
"662 342 LINE",
"229 342 LINE"
);
}
);
width = 1696;
}
);
unicode = F002;
},
{
glyphname = qtype_hidden_value;
layers = (
{
layerId = "459508BE-3C3A-46DA-A777-BF75D91E99BF";
name = Regular;
paths = (
{
closed = 1;
nodes = (
"0 975.999 LINE",
"1182 1770 LINE",
"1182 1225 LINE SMOOTH",
"1182 1192 OFFCURVE",
"1169 1144 OFFCURVE",
"1152 1121 CURVE",
"1145 1100 OFFCURVE",
"1122 1080 OFFCURVE",
"1083 1061 CURVE",
"889 938 LINE",
"851 918 OFFCURVE",
"817 905 OFFCURVE",
"787 898 CURVE",
"717 878 OFFCURVE",
"679 867 OFFCURVE",
"672 866 CURVE",
"681 864 OFFCURVE",
"700 858 OFFCURVE",
"729 849 CURVE",
"748 842 OFFCURVE",
"767 837 OFFCURVE",
"787 832 CURVE",
"832 819 OFFCURVE",
"866 805 OFFCURVE",
"889 789 CURVE",
"1083 643 LINE",
"1122 624 OFFCURVE",
"1145 602 OFFCURVE",
"1152 577 CURVE",
"1172 554 OFFCURVE",
"1182 530 OFFCURVE",
"1182 505 CURVE SMOOTH",
"1182 -34 LINE",
"0 753 LINE"
);
},
{
closed = 1;
nodes = (
"2752 753 LINE",
"1577 -34 LINE",
"1577 505 LINE SMOOTH",
"1577 558 OFFCURVE",
"1615 614 OFFCURVE",
"1670 643 CURVE",
"1866 789 LINE SMOOTH",
"1889 805 OFFCURVE",
"1923 819 OFFCURVE",
"1968 832 CURVE SMOOTH",
"1987 837 OFFCURVE",
"2006 842 OFFCURVE",
"2026 849 CURVE SMOOTH",
"2058 859 OFFCURVE",
"2077 865 OFFCURVE",
"2083 866 CURVE",
"2051 873 OFFCURVE",
"2013 883 OFFCURVE",
"1968 898 CURVE",
"1938 905 OFFCURVE",
"1904 918 OFFCURVE",
"1866 938 CURVE",
"1670 1061 LINE",
"1643 1076 OFFCURVE",
"1619 1096 OFFCURVE",
"1600 1121 CURVE",
"1585 1144 OFFCURVE",
"1577 1179 OFFCURVE",
"1577 1225 CURVE SMOOTH",
"1577 1770 LINE",
"2752 975.999 LINE"
);
}
);
width = 2752;
}
);
unicode = F003;
},
{
glyphname = qtype_calculation;
layers = (
{
layerId = "459508BE-3C3A-46DA-A777-BF75D91E99BF";
name = Regular;
paths = (
{
closed = 1;
nodes = (
"1619 1291 LINE",
"1619 821 LINE",
"1624 821 LINE",
"1660 914 OFFCURVE",
"1764 977.999 OFFCURVE",
"1873 977.999 CURVE SMOOTH",
"2097 977.999 OFFCURVE",
"2232 824 OFFCURVE",
"2232 568 CURVE SMOOTH",
"2232 340 OFFCURVE",
"2084 168 OFFCURVE",
"1869 168 CURVE SMOOTH",
"1746 168 OFFCURVE",
"1663 221 OFFCURVE",
"1619 327 CURVE",
"1616 327 LINE",
"1616 191 LINE",
"1290 191 LINE",
"1290 201 LINE",
"1339 222 LINE SMOOTH",
"1361 231 OFFCURVE",
"1377 238 OFFCURVE",
"1387 245 CURVE SMOOTH",
"1431 274 OFFCURVE",
"1427 363 OFFCURVE",
"1427 440 CURVE SMOOTH",
"1427 1070 LINE SMOOTH",
"1427 1121 OFFCURVE",
"1425 1158 OFFCURVE",
"1420 1179 CURVE",
"1411 1224 OFFCURVE",
"1394 1242 OFFCURVE",
"1339 1263 CURVE SMOOTH",
"1290 1281 LINE",
"1290 1291 LINE"
);
},
{
closed = 1;
nodes = (
"490 653 LINE",
"490 774 LINE SMOOTH",
"490 859 OFFCURVE",
"441 911 OFFCURVE",
"362 911 CURVE SMOOTH",
"262 911 OFFCURVE",
"233 838 OFFCURVE",
"233 798 CURVE SMOOTH",
"233 777 OFFCURVE",
"237 757 OFFCURVE",
"246 737 CURVE",
"50 737 LINE",
"50 818 OFFCURVE",
"78 876 OFFCURVE",
"116 911 CURVE SMOOTH",
"135 928 OFFCURVE",
"159 942 OFFCURVE",
"190 953 CURVE SMOOTH",
"239 969.999 OFFCURVE",
"301 977.999 OFFCURVE",
"375 977.999 CURVE SMOOTH",
"406 977.999 OFFCURVE",
"435 975.999 OFFCURVE",
"462 971.999 CURVE SMOOTH",
"590 953 OFFCURVE",
"683 889 OFFCURVE",
"683 752 CURVE SMOOTH",
"683 362 LINE SMOOTH",
"683 296 OFFCURVE",
"703 263 OFFCURVE",
"743 263 CURVE SMOOTH",
"766 263 OFFCURVE",
"792 283 OFFCURVE",
"807 304 CURVE",
"819 299 LINE",
"786 212 OFFCURVE",
"724 168 OFFCURVE",
"633 168 CURVE SMOOTH",
"558 168 OFFCURVE",
"510 223 OFFCURVE",
"498 304 CURVE",
"445 221 OFFCURVE",
"346 168 OFFCURVE",
"246 168 CURVE SMOOTH",
"97.9999 168 OFFCURVE",
"0 248 OFFCURVE",
"0 384 CURVE SMOOTH",
"0 505 OFFCURVE",
"81 580 OFFCURVE",
"243 608 CURVE SMOOTH"
);
},
{
closed = 1;
nodes = (
"1105 969.999 LINE",
"1105 751 LINE",
"1313 751 LINE",
"1313 630 LINE",
"1105 630 LINE",
"1105 399 LINE",
"983.999 399 LINE",
"983.999 630 LINE",
"775 630 LINE",
"775 751 LINE",
"983.999 751 LINE",
"983.999 969.999 LINE"
);
},
{
closed = 1;
nodes = (
"1938 272 OFFCURVE",
"2009 386 OFFCURVE",
"2009 566 CURVE SMOOTH",
"2009 771 OFFCURVE",
"1940 874 OFFCURVE",
"1813 874 CURVE SMOOTH",
"1689 874 OFFCURVE",
"1615 762 OFFCURVE",
"1615 566 CURVE SMOOTH",
"1615 374 OFFCURVE",
"1682 272 OFFCURVE",
"1813 272 CURVE SMOOTH"
);
},
{
closed = 1;
nodes = (
"490 585 LINE",
"339 559 LINE SMOOTH",
"251 544 OFFCURVE",
"205 484 OFFCURVE",
"205 405 CURVE SMOOTH",
"205 325 OFFCURVE",
"255 272 OFFCURVE",
"331 272 CURVE SMOOTH",
"415 272 OFFCURVE",
"490 338 OFFCURVE",
"490 441 CURVE SMOOTH"
);
}
);
width = 2232;
}
);
unicode = F004;
},
{
glyphname = qtype_variable;
layers = (
{
layerId = "459508BE-3C3A-46DA-A777-BF75D91E99BF";
name = Regular;
paths = (
{
closed = 1;
nodes = (
"0 1529 OFFCURVE",
"55 1708 OFFCURVE",
"200 1832 CURVE SMOOTH",
"274 1898 OFFCURVE",
"362 1931 OFFCURVE",
"465 1931 CURVE SMOOTH",
"506 1931 OFFCURVE",
"542 1922 OFFCURVE",
"574 1904 CURVE",
"622 1882 OFFCURVE",
"670 1819 OFFCURVE",
"717 1714 CURVE",
"723 1705 OFFCURVE",
"743 1663 OFFCURVE",
"777 1587 CURVE SMOOTH",
"798 1541 OFFCURVE",
"817 1505 OFFCURVE",
"832 1479 CURVE",
"861 1418 OFFCURVE",
"918 1302 OFFCURVE",
"1003 1131 CURVE",
"1008 1138 OFFCURVE",
"1025 1165 OFFCURVE",
"1054 1212 CURVE SMOOTH",
"1085 1262 OFFCURVE",
"1116 1311 OFFCURVE",
"1148 1360 CURVE SMOOTH",
"1243 1508 OFFCURVE",
"1358 1675 OFFCURVE",
"1491 1862 CURVE",
"1521 1897 OFFCURVE",
"1562 1915 OFFCURVE",
"1613 1915 CURVE SMOOTH",
"1778 1915 LINE SMOOTH",
"1869 1915 OFFCURVE",
"1915 1901 OFFCURVE",
"1915 1872 CURVE SMOOTH",
"1915 1855 OFFCURVE",
"1901 1831 OFFCURVE",
"1872 1798 CURVE",
"1245 915 LINE SMOOTH",
"1192 838 OFFCURVE",
"1159 796 OFFCURVE",
"1147 789 CURVE",
"1248 596 LINE",
"1288 520 LINE SMOOTH",
"1303 489 OFFCURVE",
"1313 469 OFFCURVE",
"1318 460 CURVE SMOOTH",
"1339 422 LINE",
"1340 419 OFFCURVE",
"1341 417 OFFCURVE",
"1341 416 CURVE",
"1413 332 OFFCURVE",
"1516 290 OFFCURVE",
"1651 290 CURVE SMOOTH",
"1720 290 OFFCURVE",
"1775 306 OFFCURVE",
"1817 338 CURVE",
"1859 367 OFFCURVE",
"1886 404 OFFCURVE",
"1897 449 CURVE SMOOTH",
"1905 486 OFFCURVE",
"1916 508 OFFCURVE",
"1935 517 CURVE SMOOTH",
"1954 526 OFFCURVE",
"1964 527 OFFCURVE",
"1989 527 CURVE SMOOTH",
"2053 527 OFFCURVE",
"2085 504 OFFCURVE",
"2085 457 CURVE SMOOTH",
"2085 317 OFFCURVE",
"2045 187 OFFCURVE",
"1965 66 CURVE SMOOTH",
"1888 -56 OFFCURVE",
"1774 -117 OFFCURVE",
"1621 -117 CURVE SMOOTH",
"1522 -117 OFFCURVE",
"1443 -82 OFFCURVE",
"1379 -0.999999 CURVE SMOOTH",
"1324 71 OFFCURVE",
"1312 95.9999 OFFCURVE",
"1259 233 CURVE SMOOTH",
"1234 298 OFFCURVE",
"1219 335 OFFCURVE",
"1214 344 CURVE",
"1193 390 OFFCURVE",
"1148 499 OFFCURVE",
"1081 670 CURVE",
"1066 649 OFFCURVE",
"1055 634 OFFCURVE",
"1048 623 CURVE",
"1027 593 LINE",
"1003 564 OFFCURVE",
"949 489 OFFCURVE",
"865 368 CURVE SMOOTH",
"800 275 OFFCURVE",
"701 136 OFFCURVE",
"570 -48 CURVE",
"543 -83 OFFCURVE",
"507 -101 OFFCURVE",
"463 -101 CURVE SMOOTH",
"304 -101 LINE SMOOTH",
"215 -101 OFFCURVE",
"170 -87 OFFCURVE",
"170 -58 CURVE SMOOTH",
"170 -42 OFFCURVE",
"177 -17 OFFCURVE",
"191 18 CURVE",
"817 867 LINE",
"861 933 OFFCURVE",
"890 972.999 OFFCURVE",
"903 986.999 CURVE",
"717 1355 LINE SMOOTH",
"704 1380 OFFCURVE",
"696 1395 OFFCURVE",
"693 1398 CURVE",
"628 1481 OFFCURVE",
"533 1523 OFFCURVE",
"408 1523 CURVE SMOOTH",
"346 1523 OFFCURVE",
"297 1508 OFFCURVE",
"261 1478 CURVE SMOOTH",
"224 1449 OFFCURVE",
"200 1411 OFFCURVE",
"189 1365 CURVE SMOOTH",
"181 1328 OFFCURVE",
"167 1304 OFFCURVE",
"146 1293 CURVE",
"121 1290 OFFCURVE",
"104 1288 OFFCURVE",
"95.9999 1288 CURVE SMOOTH",
"92.9999 1288 LINE SMOOTH",
"31 1288 OFFCURVE",
"0 1312 OFFCURVE",
"0 1360 CURVE SMOOTH"
);
}
);
width = 2084;
}
);
unicode = F005;
},
{
glyphname = qtype_single_select;
layers = (
{
layerId = "459508BE-3C3A-46DA-A777-BF75D91E99BF";
name = Regular;
paths = (
{
closed = 1;
nodes = (
"183 1777 OFFCURVE",
"0 1594 OFFCURVE",
"0 1370 CURVE SMOOTH",
"0 1146 OFFCURVE",
"182 963 OFFCURVE",
"406 963 CURVE SMOOTH",
"630 963 OFFCURVE",
"811 1145 OFFCURVE",
"811 1370 CURVE SMOOTH",
"811 1594 OFFCURVE",
"630 1777 OFFCURVE",
"406 1777 CURVE SMOOTH"
);
},
{
closed = 1;
nodes = (
"2461 1413 LINE SMOOTH",
"2461 1525 OFFCURVE",
"2369 1616 OFFCURVE",
"2257 1616 CURVE SMOOTH",
"1290 1616 LINE SMOOTH",
"1178 1616 OFFCURVE",
"1087 1525 OFFCURVE",
"1087 1413 CURVE SMOOTH",
"1087 1325 LINE SMOOTH",
"1087 1213 OFFCURVE",
"1178 1122 OFFCURVE",
"1290 1122 CURVE SMOOTH",
"2257 1122 LINE SMOOTH",
"2369 1122 OFFCURVE",
"2461 1213 OFFCURVE",
"2461 1325 CURVE SMOOTH"
);
},
{
closed = 1;
nodes = (
"582 1469 OFFCURVE",
"601 1423 OFFCURVE",
"601 1370 CURVE SMOOTH",
"601 1262 OFFCURVE",
"514 1174 OFFCURVE",
"406 1174 CURVE SMOOTH",
"297 1174 OFFCURVE",
"209 1263 OFFCURVE",
"209 1370 CURVE SMOOTH",
"209 1477 OFFCURVE",
"297 1562 OFFCURVE",
"406 1562 CURVE SMOOTH",
"460 1562 OFFCURVE",
"506 1543 OFFCURVE",
"545 1506 CURVE SMOOTH"
);
},
{
closed = 1;
nodes = (
"183 651 OFFCURVE",
"0 469 OFFCURVE",
"0 245 CURVE SMOOTH",
"0 95.9999 OFFCURVE",
"78 -35 OFFCURVE",
"203 -107 CURVE SMOOTH",
"265 -144 OFFCURVE",
"333 -162 OFFCURVE",
"406 -162 CURVE SMOOTH",
"630 -162 OFFCURVE",
"811 20 OFFCURVE",
"811 245 CURVE SMOOTH",
"811 469 OFFCURVE",
"630 651 OFFCURVE",
"406 651 CURVE SMOOTH"
);
},
{
closed = 1;
nodes = (
"2461 289 LINE SMOOTH",
"2461 400 OFFCURVE",
"2369 491 OFFCURVE",
"2257 491 CURVE SMOOTH",
"1290 491 LINE SMOOTH",
"1178 491 OFFCURVE",
"1087 400 OFFCURVE",
"1087 289 CURVE SMOOTH",
"1087 198 LINE SMOOTH",
"1087 86 OFFCURVE",
"1178 -3 OFFCURVE",
"1290 -3 CURVE SMOOTH",
"2257 -3 LINE SMOOTH",
"2369 -3 OFFCURVE",
"2461 86 OFFCURVE",
"2461 198 CURVE SMOOTH"
);
}
);
width = 2460;
}
);
unicode = F006;
},
{
glyphname = qtype_multi_select;
layers = (
{
layerId = "459508BE-3C3A-46DA-A777-BF75D91E99BF";
name = Regular;
paths = (
{
closed = 1;
nodes = (
"201 1774 LINE SMOOTH",
"90 1774 OFFCURVE",
"0 1682 OFFCURVE",
"0 1570 CURVE SMOOTH",
"0 1167 LINE SMOOTH",
"0 1055 OFFCURVE",
"90 965 OFFCURVE",
"201 965 CURVE SMOOTH",
"613 965 LINE SMOOTH",
"726 965 OFFCURVE",
"816 1055 OFFCURVE",
"816 1167 CURVE SMOOTH",
"816 1570 LINE SMOOTH",
"816 1682 OFFCURVE",
"725 1774 OFFCURVE",
"613 1774 CURVE SMOOTH"
);
},
{
closed = 1;
nodes = (
"2459 1413 LINE SMOOTH",
"2459 1525 OFFCURVE",
"2368 1616 OFFCURVE",
"2256 1616 CURVE SMOOTH",
"1289 1616 LINE SMOOTH",
"1177 1616 OFFCURVE",
"1086 1525 OFFCURVE",
"1086 1413 CURVE SMOOTH",
"1086 1325 LINE SMOOTH",
"1086 1213 OFFCURVE",
"1177 1122 OFFCURVE",
"1289 1122 CURVE SMOOTH",
"2256 1122 LINE SMOOTH",
"2368 1122 OFFCURVE",
"2459 1213 OFFCURVE",
"2459 1325 CURVE SMOOTH"
);
},
{
closed = 1;
nodes = (
"606 1176 LINE",
"210 1176 LINE",
"210 1561 LINE",
"606 1561 LINE"
);
},
{
closed = 1;
nodes = (
"201 649 LINE SMOOTH",
"90 649 OFFCURVE",
"0 558 OFFCURVE",
"0 447 CURVE SMOOTH",
"0 40 LINE SMOOTH",
"0 -72 OFFCURVE",
"90 -161 OFFCURVE",
"201 -161 CURVE SMOOTH",
"613 -161 LINE SMOOTH",
"726 -161 OFFCURVE",
"816 -72 OFFCURVE",
"816 40 CURVE SMOOTH",
"816 447 LINE SMOOTH",
"816 558 OFFCURVE",
"726 649 OFFCURVE",
"613 649 CURVE SMOOTH"
);
},
{
closed = 1;
nodes = (
"2459 289 LINE SMOOTH",
"2459 400 OFFCURVE",
"2368 491 OFFCURVE",
"2256 491 CURVE SMOOTH",
"1289 491 LINE SMOOTH",
"1177 491 OFFCURVE",
"1086 400 OFFCURVE",
"1086 289 CURVE SMOOTH",
"1086 198 LINE SMOOTH",
"1086 86 OFFCURVE",
"1177 -3 OFFCURVE",
"1289 -3 CURVE SMOOTH",
"2256 -3 LINE SMOOTH",
"2368 -3 OFFCURVE",
"2459 86 OFFCURVE",
"2459 198 CURVE SMOOTH"
);
},
{
closed = 1;
nodes = (
"606 49 LINE",
"210 49 LINE",
"210 439 LINE",
"606 439 LINE"
);
}
);
width = 2459;
}
);
unicode = F007;
},
{
glyphname = qtype_decimal;
layers = (
{
layerId = "459508BE-3C3A-46DA-A777-BF75D91E99BF";
name = Regular;
paths = (
{
closed = 1;
nodes = (
"651 952 OFFCURVE",
"661 1067 OFFCURVE",
"680 1198 CURVE",
"703 1319 OFFCURVE",
"738 1423 OFFCURVE",
"787 1510 CURVE SMOOTH",
"910 1723 OFFCURVE",
"1096 1829 OFFCURVE",
"1347 1829 CURVE SMOOTH",
"1492 1829 OFFCURVE",
"1608 1799 OFFCURVE",
"1697 1739 CURVE",
"1790 1681 OFFCURVE",
"1861 1605 OFFCURVE",
"1910 1510 CURVE",
"1966 1415 OFFCURVE",
"2002 1311 OFFCURVE",
"2019 1198 CURVE SMOOTH",
"2042 1071 OFFCURVE",
"2053 956 OFFCURVE",
"2053 854 CURVE SMOOTH",
"2053 747 OFFCURVE",
"2042 634 OFFCURVE",
"2019 514 CURVE",
"2003 401 OFFCURVE",
"1967 297 OFFCURVE",
"1910 201 CURVE",
"1807 5 OFFCURVE",
"1622 -118 OFFCURVE",
"1347 -118 CURVE SMOOTH",
"1210 -118 OFFCURVE",
"1095 -89 OFFCURVE",
"1002 -31 CURVE",
"913 31 OFFCURVE",
"841 108 OFFCURVE",
"787 201 CURVE",
"724 320 OFFCURVE",
"688 424 OFFCURVE",
"680 514 CURVE SMOOTH",
"679 524 OFFCURVE",
"676 560 OFFCURVE",
"669 621 CURVE SMOOTH",
"657 714 OFFCURVE",
"651 791 OFFCURVE",
"651 854 CURVE SMOOTH"
);
},
{
closed = 1;
nodes = (
"1048 829 OFFCURVE",
"1050 769 OFFCURVE",
"1054 674 CURVE",
"1059 613 OFFCURVE",
"1071 546 OFFCURVE",
"1090 475 CURVE SMOOTH",
"1135 324 OFFCURVE",
"1221 249 OFFCURVE",
"1347 249 CURVE SMOOTH",
"1478 249 OFFCURVE",
"1566 324 OFFCURVE",
"1611 475 CURVE SMOOTH",
"1639 578 OFFCURVE",
"1653 705 OFFCURVE",
"1653 854 CURVE SMOOTH",
"1653 1006 OFFCURVE",
"1639 1133 OFFCURVE",
"1611 1235 CURVE SMOOTH",
"1566 1387 OFFCURVE",
"1478 1463 OFFCURVE",
"1347 1463 CURVE SMOOTH",
"1272 1463 OFFCURVE",
"1215 1441 OFFCURVE",
"1178 1397 CURVE SMOOTH",
"1106 1314 OFFCURVE",
"1065 1192 OFFCURVE",
"1054 1030 CURVE SMOOTH",
"1050 941 OFFCURVE",
"1048 882 OFFCURVE",
"1048 854 CURVE SMOOTH"
);
},
{
closed = 1;
nodes = (
"0 172 OFFCURVE",
"6 204 OFFCURVE",
"18 238 CURVE",
"54 306 OFFCURVE",
"89 339 OFFCURVE",
"150 367 CURVE",
"173 379 OFFCURVE",
"204 385 OFFCURVE",
"245 385 CURVE SMOOTH",
"312 385 OFFCURVE",
"370 361 OFFCURVE",
"417 314 CURVE",
"441 293 OFFCURVE",
"458 268 OFFCURVE",
"469 238 CURVE",
"482 210 OFFCURVE",
"489 178 OFFCURVE",
"489 142 CURVE SMOOTH",
"489 106 OFFCURVE",
"482 74 OFFCURVE",
"469 46 CURVE",
"448 -13 OFFCURVE",
"404 -55 OFFCURVE",
"340 -82 CURVE SMOOTH",
"307 -95.9999 OFFCURVE",
"276 -103 OFFCURVE",
"245 -103 CURVE SMOOTH",
"178 -103 OFFCURVE",
"111 -72 OFFCURVE",
"70 -33 CURVE",
"55 -16 OFFCURVE",
"37 9.99999 OFFCURVE",
"18 46 CURVE",
"6 79 OFFCURVE",
"0 111 OFFCURVE",
"0 142 CURVE SMOOTH"
);
}
);
width = 2052;
}
);
unicode = F008;
},
{
glyphname = qtype_long;
layers = (
{
layerId = "459508BE-3C3A-46DA-A777-BF75D91E99BF";
name = Regular;
paths = (
{
closed = 1;
nodes = (
"157 1393 LINE",
"0 1574 LINE",
"424 1931 LINE",
"682 1931 LINE",
"682 631 LINE",
"417 631 LINE",
"417 1623 LINE"
);
},
{
closed = 1;
nodes = (
"918 277 LINE",
"918 569 LINE",
"1423 1023 LINE SMOOTH",
"1464 1060 OFFCURVE",
"1475 1071 OFFCURVE",
"1503 1104 CURVE SMOOTH",
"1530 1136 OFFCURVE",
"1539 1168 OFFCURVE",
"1539 1205 CURVE SMOOTH",
"1539 1248 OFFCURVE",
"1523 1282 OFFCURVE",
"1491 1307 CURVE SMOOTH",
"1460 1333 OFFCURVE",
"1422 1346 OFFCURVE",
"1379 1346 CURVE SMOOTH",
"1274 1346 OFFCURVE",
"1217 1272 OFFCURVE",
"1210 1181 CURVE",
"935 1201 LINE",
"938 1266 OFFCURVE",
"952 1325 OFFCURVE",
"975.999 1376 CURVE",
"1028 1477 OFFCURVE",
"1108 1543 OFFCURVE",
"1217 1574 CURVE SMOOTH",
"1273 1591 OFFCURVE",
"1332 1600 OFFCURVE",
"1394 1600 CURVE SMOOTH",
"1451 1600 OFFCURVE",
"1506 1591 OFFCURVE",
"1559 1574 CURVE SMOOTH",
"1659 1545 OFFCURVE",
"1740 1480 OFFCURVE",
"1783 1379 CURVE SMOOTH",
"1804 1328 OFFCURVE",
"1815 1271 OFFCURVE",
"1815 1208 CURVE SMOOTH",
"1815 1121 OFFCURVE",
"1790 1046 OFFCURVE",
"1770 1009 CURVE SMOOTH",
"1760 989.999 OFFCURVE",
"1741 963 OFFCURVE",
"1712 927 CURVE",
"1697 910 OFFCURVE",
"1674 887 OFFCURVE",
"1643 859 CURVE SMOOTH",
"1249 519 LINE",
"1826 519 LINE",
"1826 277 LINE"
);
},
{
closed = 1;
nodes = (
"2270 342 LINE",
"2270 581 LINE",
"2360 581 LINE SMOOTH",
"2424 581 OFFCURVE",
"2455 586 OFFCURVE",
"2503 607 CURVE SMOOTH",
"2547 627 OFFCURVE",
"2569 667 OFFCURVE",
"2569 726 CURVE SMOOTH",
"2569 803 OFFCURVE",
"2498 862 OFFCURVE",
"2407 862 CURVE SMOOTH",
"2324 862 OFFCURVE",
"2263 809 OFFCURVE",
"2246 741 CURVE",
"1943 802 LINE",
"1957 859 OFFCURVE",
"1979 907 OFFCURVE",
"2009 946 CURVE SMOOTH",
"2066 1024 OFFCURVE",
"2146 1074 OFFCURVE",
"2249 1097 CURVE",
"2295 1109 OFFCURVE",
"2347 1115 OFFCURVE",
"2406 1115 CURVE SMOOTH",
"2467 1115 OFFCURVE",
"2522 1108 OFFCURVE",
"2573 1093 CURVE",
"2626 1080 OFFCURVE",
"2673 1057 OFFCURVE",
"2712 1026 CURVE",
"2801 963 OFFCURVE",
"2845 872 OFFCURVE",
"2845 753 CURVE SMOOTH",
"2845 682 OFFCURVE",
"2826 620 OFFCURVE",
"2787 567 CURVE SMOOTH",
"2748 516 OFFCURVE",
"2693 483 OFFCURVE",
"2622 469 CURVE",
"2622 463 LINE",
"2697 451 OFFCURVE",
"2757 417 OFFCURVE",
"2802 360 CURVE",
"2845 301 OFFCURVE",
"2866 234 OFFCURVE",
"2866 160 CURVE SMOOTH",
"2866 96.9999 OFFCURVE",
"2854 40 OFFCURVE",
"2831 -11 CURVE",
"2804 -62 OFFCURVE",
"2770 -103 OFFCURVE",
"2729 -134 CURVE SMOOTH",
"2646 -198 OFFCURVE",
"2535 -230 OFFCURVE",
"2398 -230 CURVE SMOOTH",
"2280 -230 OFFCURVE",
"2180 -203 OFFCURVE",
"2098 -149 CURVE SMOOTH",
"2013 -95.9999 OFFCURVE",
"1958 -11 OFFCURVE",
"1931 106 CURVE",
"2222 175 LINE",
"2231 127 OFFCURVE",
"2251 90 OFFCURVE",
"2282 64 CURVE",
"2311 37 OFFCURVE",
"2355 24 OFFCURVE",
"2415 24 CURVE SMOOTH",
"2534 24 OFFCURVE",
"2591 88 OFFCURVE",
"2591 191 CURVE SMOOTH",
"2591 226 OFFCURVE",
"2584 254 OFFCURVE",
"2569 275 CURVE",
"2537 315 OFFCURVE",
"2489 336 OFFCURVE",
"2426 337 CURVE",
"2334 342 LINE"
);
}
);
width = 3094;
}
);
unicode = F009;
},
{
glyphname = qtyle_datetime;
layers = (
{
layerId = "459508BE-3C3A-46DA-A777-BF75D91E99BF";
name = Regular;
paths = (
{
closed = 1;
nodes = (
"773 215 LINE",
"522 215 LINE",
"522 528 LINE",
"706 528 LINE",
"713 494 LINE",
"710 544 OFFCURVE",
"709 592 OFFCURVE",
"711 637 CURVE",
"706 598 LINE",
"522 598 LINE",
"522 945 LINE",
"792 945 LINE",
"803 967 OFFCURVE",
"816 989.999 OFFCURVE",
"831 1015 CURVE",
"522 1015 LINE",
"522 1328 LINE",
"870 1328 LINE",
"870 1073 LINE",
"901 1113 OFFCURVE",
"930 1148 OFFCURVE",
"958 1177 CURVE",
"939 1159 LINE",
"939 1328 LINE",
"1142 1328 LINE",
"1175 1348 OFFCURVE",
"1201 1363 OFFCURVE",
"1222 1372 CURVE SMOOTH",
"1329 1421 OFFCURVE",
"1464 1451 OFFCURVE",
"1560 1455 CURVE SMOOTH",
"1639 1458 OFFCURVE",
"1744 1448 OFFCURVE",
"1777 1440 CURVE SMOOTH",
"1810 1432 LINE",
"1810 1607 LINE SMOOTH",
"1810 1684 OFFCURVE",
"1748 1746 OFFCURVE",
"1671 1746 CURVE SMOOTH",
"1531 1746 LINE",
"1531 1850 LINE SMOOTH",
"1531 1946 OFFCURVE",
"1454 2025 OFFCURVE",
"1358 2025 CURVE SMOOTH",
"1288 2025 LINE SMOOTH",
"1192 2025 OFFCURVE",
"1114 1946 OFFCURVE",
"1114 1850 CURVE SMOOTH",
"1114 1746 LINE",
"696 1746 LINE",
"696 1850 LINE SMOOTH",
"696 1946 OFFCURVE",
"617 2025 OFFCURVE",
"522 2025 CURVE SMOOTH",
"453 2025 LINE SMOOTH",
"357 2025 OFFCURVE",
"278 1946 OFFCURVE",
"278 1850 CURVE SMOOTH",
"278 1746 LINE",
"139 1746 LINE SMOOTH",
"62 1746 OFFCURVE",
"0 1684 OFFCURVE",
"0 1607 CURVE SMOOTH",
"0 215 LINE SMOOTH",
"0 138 OFFCURVE",
"62 75 OFFCURVE",
"139 75 CURVE SMOOTH",
"843 75 LINE",
"826 105 LINE SMOOTH",
"807 138 OFFCURVE",
"787 187 OFFCURVE",
"765 252 CURVE"
);
},
{
closed = 1;
nodes = (
"417 1850 LINE SMOOTH",
"417 1869 OFFCURVE",
"434 1886 OFFCURVE",
"453 1886 CURVE SMOOTH",
"522 1886 LINE SMOOTH",
"541 1886 OFFCURVE",
"557 1869 OFFCURVE",
"557 1850 CURVE SMOOTH",
"557 1537 LINE SMOOTH",
"557 1520 OFFCURVE",
"541 1503 OFFCURVE",
"522 1503 CURVE SMOOTH",
"453 1503 LINE SMOOTH",
"434 1503 OFFCURVE",
"417 1520 OFFCURVE",
"417 1537 CURVE SMOOTH"
);
},
{
closed = 1;
nodes = (
"1253 1850 LINE SMOOTH",
"1253 1869 OFFCURVE",
"1269 1886 OFFCURVE",
"1288 1886 CURVE SMOOTH",
"1358 1886 LINE SMOOTH",
"1375 1886 OFFCURVE",
"1392 1869 OFFCURVE",
"1392 1850 CURVE SMOOTH",
"1392 1537 LINE SMOOTH",
"1392 1520 OFFCURVE",
"1377 1503 OFFCURVE",
"1358 1503 CURVE SMOOTH",
"1288 1503 LINE SMOOTH",
"1269 1503 OFFCURVE",
"1253 1520 OFFCURVE",
"1253 1537 CURVE SMOOTH"
);
},
{
closed = 1;
nodes = (
"2290 1083 OFFCURVE",
"2136 1237 OFFCURVE",
"1929 1325 CURVE SMOOTH",
"1826 1368 OFFCURVE",
"1718 1390 OFFCURVE",
"1607 1390 CURVE SMOOTH",
"1384 1390 OFFCURVE",
"1167 1297 OFFCURVE",
"1015 1145 CURVE SMOOTH",
"863 992.999 OFFCURVE",
"771 778 OFFCURVE",
"771 554 CURVE SMOOTH",
"771 402 OFFCURVE",
"808 262 OFFCURVE",
"883 135 CURVE SMOOTH",
"1032 -124 OFFCURVE",
"1306 -282 OFFCURVE",
"1607 -282 CURVE SMOOTH",
"1759 -282 OFFCURVE",
"1899 -245 OFFCURVE",
"2026 -170 CURVE SMOOTH",
"2283 -21 OFFCURVE",
"2442 253 OFFCURVE",
"2442 554 CURVE SMOOTH",
"2442 666 OFFCURVE",
"2420 774 OFFCURVE",
"2377 877 CURVE SMOOTH"
);
},
{
closed = 1;
nodes = (
"453 1015 LINE",
"139 1015 LINE",
"139 1328 LINE",
"453 1328 LINE"
);
},
{
closed = 1;
nodes = (
"1145 1328 LINE",
"1142 1328 LINE",
"1105 1304 OFFCURVE",
"1071 1280 OFFCURVE",
"1042 1255 CURVE"
);
},
{
closed = 1;
nodes = (
"1025 1241 LINE",
"1042 1255 LINE",
"1035 1250 LINE"
);
},
{
closed = 1;
nodes = (
"1025 1241 LINE",
"1002 1221 OFFCURVE",
"979.999 1200 OFFCURVE",
"958 1177 CURVE"
);
},
{
closed = 1;
nodes = (
"2063 202 OFFCURVE",
"1959 98.9999 OFFCURVE",
"1822 41 CURVE SMOOTH",
"1753 12 OFFCURVE",
"1682 -3 OFFCURVE",
"1607 -3 CURVE SMOOTH",
"1506 -3 OFFCURVE",
"1413 22 OFFCURVE",
"1328 72 CURVE SMOOTH",
"1156 172 OFFCURVE",
"1049 354 OFFCURVE",
"1049 554 CURVE SMOOTH",
"1049 654 OFFCURVE",
"1074 747 OFFCURVE",
"1124 833 CURVE SMOOTH",
"1224 1005 OFFCURVE",
"1407 1111 OFFCURVE",
"1607 1111 CURVE SMOOTH",
"1707 1111 OFFCURVE",
"1800 1086 OFFCURVE",
"1886 1036 CURVE SMOOTH",
"2058 936 OFFCURVE",
"2163 754 OFFCURVE",
"2163 554 CURVE SMOOTH",
"2163 480 OFFCURVE",
"2149 409 OFFCURVE",
"2120 340 CURVE SMOOTH"
);
},
{
closed = 1;
nodes = (
"833 1015 LINE",
"870 1073 LINE",
"855 1052 OFFCURVE",
"842 1033 OFFCURVE",
"831 1015 CURVE"
);
},
{
closed = 1;
nodes = (
"1607 554 LINE",
"1607 937 LINE SMOOTH",
"1607 954 OFFCURVE",
"1590 970.999 OFFCURVE",
"1571 970.999 CURVE SMOOTH",
"1502 970.999 LINE SMOOTH",
"1483 970.999 OFFCURVE",
"1467 954 OFFCURVE",
"1467 937 CURVE SMOOTH",
"1467 449 LINE SMOOTH",
"1467 432 OFFCURVE",
"1483 415 OFFCURVE",
"1502 415 CURVE SMOOTH",
"1920 415 LINE SMOOTH",
"1939 415 OFFCURVE",
"1954 432 OFFCURVE",
"1954 449 CURVE SMOOTH",
"1954 519 LINE SMOOTH",
"1954 538 OFFCURVE",
"1937 554 OFFCURVE",
"1920 554 CURVE SMOOTH"
);
},
{
closed = 1;
nodes = (
"453 598 LINE",
"139 598 LINE",
"139 945 LINE",
"453 945 LINE"
);
},
{
closed = 1;
nodes = (
"795 945 LINE",
"792 945 LINE",
"763 884 OFFCURVE",
"742 826 OFFCURVE",
"729 771 CURVE"
);
},
{
closed = 1;
nodes = (
"711 637 LINE",
"729 769 LINE",
"720 736 OFFCURVE",
"715 702 OFFCURVE",
"713 667 CURVE SMOOTH"
);
},
{
closed = 1;
nodes = (
"453 215 LINE",
"139 215 LINE",
"139 528 LINE",
"453 528 LINE"
);
},
{
closed = 1;
nodes = (
"713 494 LINE",
"718 425 OFFCURVE",
"729 367 OFFCURVE",
"744 318 CURVE SMOOTH",
"751 295 OFFCURVE",
"758 273 OFFCURVE",
"765 252 CURVE"
);
}
);
width = 2442;
}
);
unicode = F00A;
},
{
glyphname = qtype_audio_capture;
layers = (
{
layerId = "459508BE-3C3A-46DA-A777-BF75D91E99BF";
name = Regular;
paths = (
{
closed = 1;
nodes = (
"1996 1054 OFFCURVE",
"1823 953 OFFCURVE",
"1634 953 CURVE SMOOTH",
"1494 953 OFFCURVE",
"1359 1011 OFFCURVE",
"1263 1107 CURVE SMOOTH",
"1167 1203 OFFCURVE",
"1109 1339 OFFCURVE",
"1109 1479 CURVE SMOOTH",
"1109 1619 OFFCURVE",
"1167 1755 OFFCURVE",
"1263 1852 CURVE SMOOTH",
"1359 1948 OFFCURVE",
"1493 2006 OFFCURVE",
"1634 2006 CURVE SMOOTH",
"1826 2006 OFFCURVE",
"1998 1906 OFFCURVE",
"2091 1744 CURVE SMOOTH",
"2138 1663 OFFCURVE",
"2161 1574 OFFCURVE",
"2161 1479 CURVE SMOOTH",
"2161 1384 OFFCURVE",
"2138 1296 OFFCURVE",
"2091 1215 CURVE SMOOTH"
);
},
{
closed = 1;
nodes = (
"1480 753 LINE SMOOTH",
"1117 562 OFFCURVE",
"776 349 OFFCURVE",
"397 76 CURVE SMOOTH",
"309 11 LINE",
"268 -12 OFFCURVE",
"234 -9 OFFCURVE",
"208 22 CURVE SMOOTH",
"194 38 OFFCURVE",
"161 74 OFFCURVE",
"109 129 CURVE SMOOTH",
"54 188 OFFCURVE",
"23 222 OFFCURVE",
"15 231 CURVE",
"-2 248 OFFCURVE",
"-4 284 OFFCURVE",
"9 302 CURVE",
"15 311 OFFCURVE",
"30 327 OFFCURVE",
"55 350 CURVE SMOOTH",
"142 431 OFFCURVE",
"357 642 OFFCURVE",
"544 873 CURVE SMOOTH",
"669 1026 OFFCURVE",
"849 1286 OFFCURVE",
"920 1398 CURVE SMOOTH",
"940 1429 OFFCURVE",
"961 1463 OFFCURVE",
"981.999 1498 CURVE",
"975.999 1469 LINE SMOOTH",
"956 1381 OFFCURVE",
"970.999 1237 OFFCURVE",
"1017 1141 CURVE SMOOTH",
"1063 1044 OFFCURVE",
"1136 965 OFFCURVE",
"1229 906 CURVE SMOOTH",
"1321 847 OFFCURVE",
"1388 828 OFFCURVE",
"1465 815 CURVE SMOOTH",
"1504 808 OFFCURVE",
"1531 805 OFFCURVE",
"1548 805 CURVE",
"1561 804 OFFCURVE",
"1571 804 OFFCURVE",
"1578 805 CURVE"
);
}
);
width = 2161;
}
);
unicode = F00B;
},
{
glyphname = qtype_android_intent;
layers = (
{
layerId = "459508BE-3C3A-46DA-A777-BF75D91E99BF";
name = Regular;
paths = (
{
closed = 1;
nodes = (
"333 1302 LINE",
"301 1343 OFFCURVE",
"314 1407 OFFCURVE",
"362 1439 CURVE",
"411 1466 OFFCURVE",
"471 1452 OFFCURVE",
"502 1407 CURVE",
"745 1025 LINE",
"889 1081 OFFCURVE",
"1044 1109 OFFCURVE",
"1211 1109 CURVE SMOOTH",
"1374 1109 OFFCURVE",
"1527 1083 OFFCURVE",
"1669 1030 CURVE",
"1911 1407 LINE",
"1943 1452 OFFCURVE",
"2005 1466 OFFCURVE",
"2053 1439 CURVE",
"2101 1407 OFFCURVE",
"2114 1345 OFFCURVE",
"2081 1302 CURVE",
"1855 943 LINE",
"2206 744 OFFCURVE",
"2425 387 OFFCURVE",
"2425 -2 CURVE",
"0 -2 LINE",
"0 383 OFFCURVE",
"216 734 OFFCURVE",
"565 937 CURVE"
);
},
{
closed = 1;
nodes = (
"899 467 OFFCURVE",
"913 500 OFFCURVE",
"913 539 CURVE SMOOTH",
"913 619 OFFCURVE",
"849 683 OFFCURVE",
"769 683 CURVE SMOOTH",
"690 683 OFFCURVE",
"626 620 OFFCURVE",
"626 539 CURVE SMOOTH",
"626 460 OFFCURVE",
"690 397 OFFCURVE",
"769 397 CURVE SMOOTH",
"808 397 OFFCURVE",
"842 411 OFFCURVE",
"871 439 CURVE SMOOTH"
);
},
{
closed = 1;
nodes = (
"1736 397 OFFCURVE",
"1800 460 OFFCURVE",
"1800 539 CURVE SMOOTH",
"1800 620 OFFCURVE",
"1737 683 OFFCURVE",
"1656 683 CURVE SMOOTH",
"1577 683 OFFCURVE",
"1512 619 OFFCURVE",
"1512 539 CURVE SMOOTH",
"1512 462 OFFCURVE",
"1577 397 OFFCURVE",
"1656 397 CURVE SMOOTH"
);
}
);
width = 2425;
}
);
unicode = F00C;
},
{
glyphname = qtype_signature;
layers = (
{
layerId = "459508BE-3C3A-46DA-A777-BF75D91E99BF";
name = Regular;
paths = (
{
closed = 1;
nodes = (
"2437 1819 LINE",
"2302 1855 LINE",
"2289 1862 LINE",
"2245 1870 OFFCURVE",
"2199 1842 OFFCURVE",
"2190 1802 CURVE",
"1770 275 LINE",
"1770 264 LINE",
"1775 207 OFFCURVE",
"1781 139 OFFCURVE",
"1789 58 CURVE",
"1798 6 OFFCURVE",
"1806 -55 OFFCURVE",
"1814 -125 CURVE SMOOTH",
"1818 -169 LINE",
"1846 -136 LINE",
"1895 -68 OFFCURVE",
"1933 -18 OFFCURVE",
"1959 15 CURVE SMOOTH",
"2026 99.9999 OFFCURVE",
"2067 154 OFFCURVE",
"2082 177 CURVE",
"2086 191 LINE",
"2096 227 LINE",
"2506 1715 LINE SMOOTH",
"2517 1760 OFFCURVE",
"2491 1805 OFFCURVE",
"2450 1814 CURVE"
);
},
{
closed = 1;
nodes = (
"1780 -64 OFFCURVE",
"1764 -42 OFFCURVE",
"1749 -27 CURVE SMOOTH",
"1727 -6 OFFCURVE",
"1702 9 OFFCURVE",
"1674 18 CURVE",
"1652 27 OFFCURVE",
"1619 31 OFFCURVE",
"1576 31 CURVE SMOOTH",
"1539 31 OFFCURVE",
"1487 27 OFFCURVE",
"1420 19 CURVE SMOOTH",
"1386 14 OFFCURVE",
"1361 11 OFFCURVE",
"1344 9.99999 CURVE",
"1241 0 OFFCURVE",
"1157 3 OFFCURVE",
"1091 18 CURVE SMOOTH",
"1044 27 OFFCURVE",
"1003 43 OFFCURVE",
"967.999 65 CURVE",
"941 80 LINE",
"915 98.9999 LINE",
"910 99.9999 OFFCURVE",
"903 105 OFFCURVE",
"894 114 CURVE SMOOTH",
"891 117 OFFCURVE",
"886 122 OFFCURVE",
"883 123 CURVE",
"869 133 LINE",
"869 134 OFFCURVE",
"867 137 OFFCURVE",
"862 144 CURVE",
"827 177 OFFCURVE",
"807 210 OFFCURVE",
"802 243 CURVE",
"790 291 OFFCURVE",
"815 355 OFFCURVE",
"878 435 CURVE SMOOTH",
"923 492 OFFCURVE",
"942 513 OFFCURVE",
"1018 590 CURVE SMOOTH",
"1068 640 OFFCURVE",
"1108 681 OFFCURVE",
"1138 713 CURVE SMOOTH",
"1227 808 OFFCURVE",
"1330 954 OFFCURVE",
"1306 1081 CURVE",
"1304 1099 LINE",
"1298 1118 LINE",
"1297 1123 OFFCURVE",
"1295 1129 OFFCURVE",
"1293 1137 CURVE",
"1286 1158 LINE",
"1275 1175 LINE",
"1271 1185 LINE",
"1271 1187 LINE",
"1269 1187 LINE",
"1263 1198 LINE",
"1258 1206 LINE",
"1241 1231 OFFCURVE",
"1227 1247 OFFCURVE",
"1214 1254 CURVE",
"1205 1261 OFFCURVE",
"1196 1268 OFFCURVE",
"1187 1277 CURVE",
"1158 1294 LINE SMOOTH",
"1101 1325 OFFCURVE",
"1029 1338 OFFCURVE",
"941 1334 CURVE",
"857 1326 OFFCURVE",
"705 1290 OFFCURVE",
"498 1191 CURVE SMOOTH",
"409 1146 OFFCURVE",
"288 1075 OFFCURVE",
"135 977.999 CURVE SMOOTH",
"99.9999 956 OFFCURVE",
"67 934 OFFCURVE",
"38 912 CURVE",
"0 887 LINE",
"195 635 LINE",
"226 659 LINE",
"228 660 OFFCURVE",
"232 663 OFFCURVE",
"237 668 CURVE",
"248 676 OFFCURVE",
"266 691 OFFCURVE",
"278 700 CURVE SMOOTH",
"283 704 OFFCURVE",
"294 713 OFFCURVE",
"312 726 CURVE SMOOTH",
"499 869 OFFCURVE",
"729 1002 OFFCURVE",
"850 1049 CURVE SMOOTH",
"891 1066 OFFCURVE",
"930 1077 OFFCURVE",
"967 1082 CURVE",
"994.999 1087 OFFCURVE",
"1022 1087 OFFCURVE",
"1048 1081 CURVE",
"1050 1081 OFFCURVE",
"1051 1081 OFFCURVE",
"1052 1080 CURVE SMOOTH",
"1053 1079 OFFCURVE",
"1055 1078 OFFCURVE",
"1056 1078 CURVE",
"1058 1075 LINE",
"1060 1075 OFFCURVE",
"1062 1074 OFFCURVE",
"1064 1072 CURVE SMOOTH",
"1068 1068 LINE",
"1070 1062 LINE",
"1080 1049 LINE",
"1078 1048 LINE",
"1080 1048 LINE",
"1081 1014 LINE",
"1074 991.999 OFFCURVE",
"1066 974.999 OFFCURVE",
"1059 963 CURVE",
"1014 870 OFFCURVE",
"910 754 OFFCURVE",
"875 714 CURVE",
"868 705 OFFCURVE",
"852 683 OFFCURVE",
"825 650 CURVE SMOOTH",
"782 595 OFFCURVE",
"748 547 OFFCURVE",
"723 506 CURVE SMOOTH",
"704 475 OFFCURVE",
"689 446 OFFCURVE",
"678 418 CURVE SMOOTH",
"621 269 OFFCURVE",
"653 145 OFFCURVE",
"773 47 CURVE SMOOTH",
"792 31 LINE",
"807 18 LINE",
"813 17 OFFCURVE",
"821 13 OFFCURVE",
"830 6 CURVE",
"831 5 OFFCURVE",
"833 4 OFFCURVE",
"835 2 CURVE SMOOTH",
"837 0 OFFCURVE",
"839 -0.999999 OFFCURVE",
"840 -2 CURVE",
"880 -25 LINE",
"917 -43 LINE",
"961 -58 OFFCURVE",
"999.999 -70 OFFCURVE",
"1035 -77 CURVE SMOOTH",
"1104 -92 OFFCURVE",
"1223 -92 OFFCURVE",
"1358 -63 CURVE SMOOTH",
"1373 -60 OFFCURVE",
"1407 -52 OFFCURVE",
"1462 -39 CURVE SMOOTH",
"1566 -12 OFFCURVE",
"1627 -8 OFFCURVE",
"1667 -15 CURVE",
"1700 -24 OFFCURVE",
"1722 -35 OFFCURVE",
"1734 -46 CURVE",
"1760 -66 OFFCURVE",
"1781 -93.9999 OFFCURVE",
"1798 -131 CURVE SMOOTH",
"1814 -169 LINE",
"1806 -130 LINE",
"1805 -127 OFFCURVE",
"1801 -114 OFFCURVE",
"1792 -92.9999 CURVE SMOOTH"
);
},
{
closed = 1;
nodes = (
"1066 1072 LINE",
"1064 1075 LINE",
"1066 1075 LINE"
);
},
{
closed = 1;
nodes = (
"2054 202 LINE",
"2045 186 OFFCURVE",
"2001 126 OFFCURVE",
"1921 23 CURVE",
"1829 49 LINE",
"1814 176 OFFCURVE",
"1806 249 OFFCURVE",
"1806 269 CURVE",
"1816 307 LINE",
"1834 314 OFFCURVE",
"1850 315 OFFCURVE",
"1865 310 CURVE",
"1868 310 OFFCURVE",
"1872 308 OFFCURVE",
"1877 305 CURVE",
"1902 294 OFFCURVE",
"1918 268 OFFCURVE",
"1917 239 CURVE SMOOTH",
"1917 232 OFFCURVE",
"1916 227 OFFCURVE",
"1913 224 CURVE",
"1939 217 LINE",
"1943 232 LINE",
"1958 260 OFFCURVE",
"1981 272 OFFCURVE",
"2013 269 CURVE",
"2026 267 LINE",
"2042 260 OFFCURVE",
"2054 251 OFFCURVE",
"2063 241 CURVE"
);
}
);
width = 2508;
}
);
unicode = F00D;
},
{
glyphname = dashboard_apps;
layers = (
{
layerId = "459508BE-3C3A-46DA-A777-BF75D91E99BF";
name = Regular;
paths = (
{
closed = 1;
nodes = (
"1309 -130 OFFCURVE",
"1230 -173 OFFCURVE",
"1145 -189 CURVE SMOOTH",
"1074 -204 OFFCURVE",
"1012 -211 OFFCURVE",
"961 -211 CURVE SMOOTH",
"689 -211 LINE SMOOTH",
"668 -211 OFFCURVE",
"644 -209 OFFCURVE",
"616 -206 CURVE SMOOTH",
"533 -196 OFFCURVE",
"470 -176 OFFCURVE",
"426 -146 CURVE SMOOTH",
"365 -106 OFFCURVE",
"349 -77 OFFCURVE",
"338 26 CURVE SMOOTH",
"333 71 OFFCURVE",
"327 134 OFFCURVE",
"322 213 CURVE SMOOTH",
"303 504 OFFCURVE",
"290 964 OFFCURVE",
"283 1343 CURVE SMOOTH",
"278 1552 OFFCURVE",
"275 1685 OFFCURVE",
"275 1742 CURVE",
"274 1759 OFFCURVE",
"274 1780 OFFCURVE",
"274 1803 CURVE SMOOTH",
"274 1864 OFFCURVE",
"359 1946 OFFCURVE",
"427 1946 CURVE",
"476 1960 LINE SMOOTH",
"549 1981 OFFCURVE",
"711 2003 OFFCURVE",
"855 2003 CURVE SMOOTH",
"985.999 2003 OFFCURVE",
"1167 1979 OFFCURVE",
"1242 1962 CURVE SMOOTH",
"1304 1946 LINE",
"1361 1946 OFFCURVE",
"1423 1866 OFFCURVE",
"1423 1803 CURVE SMOOTH",
"1424 1362 LINE SMOOTH",
"1425 807 OFFCURVE",
"1403 2 OFFCURVE",
"1352 -71 CURVE SMOOTH"
);
},
{
closed = 1;
nodes = (
"1282 1743 LINE SMOOTH",
"1282 1766 OFFCURVE",
"1261 1778 OFFCURVE",
"1233 1778 CURVE SMOOTH",
"464 1778 LINE SMOOTH",
"439 1778 OFFCURVE",
"427 1766 OFFCURVE",
"427 1743 CURVE SMOOTH",
"427 785 LINE SMOOTH",
"427 761 OFFCURVE",
"439 749 OFFCURVE",
"464 749 CURVE SMOOTH",
"1233 749 LINE SMOOTH",
"1261 749 OFFCURVE",
"1282 762 OFFCURVE",
"1282 785 CURVE SMOOTH"
);
},
{
closed = 1;
nodes = (
"802 678 OFFCURVE",
"766 672 OFFCURVE",
"735 661 CURVE SMOOTH",
"704 650 OFFCURVE",
"689 636 OFFCURVE",
"689 619 CURVE SMOOTH",
"689 582 OFFCURVE",
"760 549 OFFCURVE",
"843 549 CURVE SMOOTH",
"924 549 OFFCURVE",
"996.999 582 OFFCURVE",
"996.999 619 CURVE SMOOTH",
"996.999 635 OFFCURVE",
"981.999 649 OFFCURVE",
"951 661 CURVE",
"919 672 OFFCURVE",
"883 678 OFFCURVE",
"843 678 CURVE SMOOTH"
);
},
{
closed = 1;
nodes = (
"440 429 OFFCURVE",
"445 416 OFFCURVE",
"466 401 CURVE",
"493 380 OFFCURVE",
"524 369 OFFCURVE",
"559 369 CURVE SMOOTH",
"615 369 OFFCURVE",
"664 392 OFFCURVE",
"664 416 CURVE",
"655 428 OFFCURVE",
"620 440 OFFCURVE",
"559 453 CURVE",
"540 460 OFFCURVE",
"510 457 OFFCURVE",
"469 446 CURVE SMOOTH",
"462 444 OFFCURVE",
"456 442 OFFCURVE",
"451 440 CURVE"
);
},
{
closed = 1;
nodes = (
"1130 451 LINE",
"1128 450 LINE",
"1126 450 LINE",
"1125 449 LINE",
"1072 435 OFFCURVE",
"1045 424 OFFCURVE",
"1045 416 CURVE",
"1041 409 OFFCURVE",
"1044 401 OFFCURVE",
"1053 394 CURVE",
"1073 377 OFFCURVE",
"1102 369 OFFCURVE",
"1139 369 CURVE SMOOTH",
"1195 369 OFFCURVE",
"1270 416 OFFCURVE",
"1257 440 CURVE",
"1240 446 LINE",
"1211 455 OFFCURVE",
"1178 458 OFFCURVE",
"1139 453 CURVE"
);
},
{
closed = 1;
nodes = (
"799 429 OFFCURVE",
"747 405 OFFCURVE",
"747 381 CURVE SMOOTH",
"747 357 OFFCURVE",
"799 334 OFFCURVE",
"855 334 CURVE SMOOTH",
"910 334 OFFCURVE",
"950 356 OFFCURVE",
"950 381 CURVE SMOOTH",
"950 406 OFFCURVE",
"910 429 OFFCURVE",
"855 429 CURVE SMOOTH"
);
},
{
closed = 1;
nodes = (
"442 299 OFFCURVE",
"446 287 OFFCURVE",
"465 272 CURVE SMOOTH",
"492 251 OFFCURVE",
"524 240 OFFCURVE",
"559 240 CURVE SMOOTH",
"615 240 OFFCURVE",
"664 262 OFFCURVE",
"664 286 CURVE",
"655 297 OFFCURVE",
"620 309 OFFCURVE",
"559 322 CURVE",
"538 329 OFFCURVE",
"508 327 OFFCURVE",
"469 316 CURVE SMOOTH",
"462 314 OFFCURVE",
"456 312 OFFCURVE",
"451 310 CURVE"
);
},
{
closed = 1;
nodes = (
"1129 319 OFFCURVE",
"1123 318 OFFCURVE",
"1122 318 CURVE",
"1071 304 OFFCURVE",
"1045 293 OFFCURVE",
"1045 286 CURVE",
"1039 275 OFFCURVE",
"1047 264 OFFCURVE",
"1068 255 CURVE",
"1089 245 OFFCURVE",
"1113 240 OFFCURVE",
"1139 240 CURVE SMOOTH",
"1195 240 OFFCURVE",
"1270 286 OFFCURVE",
"1257 310 CURVE",
"1240 316 LINE",
"1210 325 OFFCURVE",
"1176 327 OFFCURVE",
"1139 322 CURVE"
);
},
{
closed = 1;
nodes = (
"824 286 OFFCURVE",
"798 283 OFFCURVE",
"778 277 CURVE SMOOTH",
"757 270 OFFCURVE",
"747 261 OFFCURVE",
"747 250 CURVE SMOOTH",
"747 226 OFFCURVE",
"796 205 OFFCURVE",
"855 205 CURVE SMOOTH",
"910 205 OFFCURVE",
"950 226 OFFCURVE",
"950 250 CURVE SMOOTH",
"950 274 OFFCURVE",
"918 286 OFFCURVE",
"855 286 CURVE SMOOTH"
);
},
{
closed = 1;
nodes = (
"451 179 LINE",
"441 169 OFFCURVE",
"446 156 OFFCURVE",
"465 141 CURVE SMOOTH",
"492 120 OFFCURVE",
"524 109 OFFCURVE",
"559 109 CURVE SMOOTH",
"615 109 OFFCURVE",
"664 131 OFFCURVE",
"664 155 CURVE",
"645 178 OFFCURVE",
"610 194 OFFCURVE",
"559 205 CURVE",
"534 209 OFFCURVE",
"489 198 OFFCURVE",
"469 189 CURVE"
);
},
{
closed = 1;
nodes = (
"1114 198 OFFCURVE",
"1093 190 OFFCURVE",
"1074 180 CURVE SMOOTH",
"1055 170 OFFCURVE",
"1045 162 OFFCURVE",
"1045 155 CURVE",
"1039 144 OFFCURVE",
"1047 133 OFFCURVE",
"1068 124 CURVE",
"1089 114 OFFCURVE",
"1113 109 OFFCURVE",
"1139 109 CURVE SMOOTH",
"1195 109 OFFCURVE",
"1270 155 OFFCURVE",
"1257 179 CURVE",
"1240 188 LINE SMOOTH",
"1216 200 OFFCURVE",
"1171 209 OFFCURVE",
"1139 205 CURVE"
);
},
{
closed = 1;
nodes = (
"796 155 OFFCURVE",
"747 133 OFFCURVE",
"747 109 CURVE SMOOTH",
"747 85 OFFCURVE",
"783 73 OFFCURVE",
"855 73 CURVE SMOOTH",
"918 73 OFFCURVE",
"950 85 OFFCURVE",
"950 109 CURVE SMOOTH",
"950 134 OFFCURVE",
"911 155 OFFCURVE",
"855 155 CURVE SMOOTH"
);
},
{
closed = 1;
nodes = (
"428 29 OFFCURVE",
"492 -9.99999 OFFCURVE",
"559 -9.99999 CURVE SMOOTH",
"629 -9.99999 OFFCURVE",
"664 2 OFFCURVE",
"664 25 CURVE",
"645 48 OFFCURVE",
"610 64 OFFCURVE",
"559 73 CURVE",
"537 80 OFFCURVE",
"507 78 OFFCURVE",
"469 67 CURVE SMOOTH",
"451 62 LINE"
);
},
{
closed = 1;
nodes = (
"1116 68 OFFCURVE",
"1094 61 OFFCURVE",
"1074 50 CURVE SMOOTH",
"1055 40 OFFCURVE",
"1045 32 OFFCURVE",
"1045 25 CURVE",
"1039 14 OFFCURVE",
"1046 5 OFFCURVE",
"1067 -0.999999 CURVE SMOOTH",
"1087 -7 OFFCURVE",
"1111 -9.99999 OFFCURVE",
"1139 -9.99999 CURVE SMOOTH",
"1202 -9.99999 OFFCURVE",
"1269 27 OFFCURVE",
"1257 62 CURVE",
"1240 67 LINE SMOOTH",
"1210 76 OFFCURVE",
"1176 78 OFFCURVE",
"1139 73 CURVE"
);
},
{
closed = 1;
nodes = (
"799 25 OFFCURVE",
"747 2 OFFCURVE",
"747 -21 CURVE SMOOTH",
"747 -45 OFFCURVE",
"783 -57 OFFCURVE",
"855 -57 CURVE SMOOTH",
"918 -57 OFFCURVE",
"950 -45 OFFCURVE",
"950 -21 CURVE SMOOTH",
"950 4 OFFCURVE",
"910 25 OFFCURVE",
"855 25 CURVE SMOOTH"
);
}
);
width = 1698;
}
);
unicode = F00E;
},
{
glyphname = commtrack;
layers = (
{
layerId = "459508BE-3C3A-46DA-A777-BF75D91E99BF";
name = Regular;
paths = (
{
closed = 1;
nodes = (
"0 1230 LINE",
"645 1801 LINE",
"1469 1726 LINE",
"758 1070 LINE"
);
},
{
closed = 1;
nodes = (
"2229 283 OFFCURVE",
"2388 512 OFFCURVE",
"2469 709 CURVE SMOOTH",
"2630 1104 OFFCURVE",
"2453 1342 OFFCURVE",
"1889 1361 CURVE",
"1742 1726 LINE",
"2079 1698 OFFCURVE",
"2498 1626 OFFCURVE",
"2673 1370 CURVE SMOOTH",
"2826 1145 OFFCURVE",
"2728 828 OFFCURVE",
"2451 483 CURVE SMOOTH",
"2328 329 OFFCURVE",
"2175 175 OFFCURVE",
"1993 22 CURVE"
);
},
{
closed = 1;
nodes = (
"1571 1672 LINE",
"1946 695 LINE",
"1271 -16 LINE",
"859 1006 LINE"
);
},
{
closed = 1;
nodes = (
"2040 277 OFFCURVE",
"2156 481 OFFCURVE",
"2209 663 CURVE SMOOTH",
"2264 840 OFFCURVE",
"2209 969.999 OFFCURVE",
"2049 996.999 CURVE",
"1946 1210 LINE",
"2297 1187 OFFCURVE",
"2429 1051 OFFCURVE",
"2413 875 CURVE SMOOTH",
"2403 779 OFFCURVE",
"2370 683 OFFCURVE",
"2315 588 CURVE SMOOTH",
"2187 373 OFFCURVE",
"2013 181 OFFCURVE",
"1862 50 CURVE"
);
},
{
closed = 1;
nodes = (
"0 1098 LINE",
"371 142 LINE",
"1169 -90 LINE",
"758 949 LINE"
);
}
);
width = 2746;
}
);
unicode = F00F;
},
{
glyphname = qtype_multi_select_box;
layers = (
{
layerId = "459508BE-3C3A-46DA-A777-BF75D91E99BF";
name = Regular;
paths = (
{
closed = 1;
nodes = (
"515 1949 LINE SMOOTH",
"328 1949 OFFCURVE",
"161 1848 OFFCURVE",
"69 1687 CURVE SMOOTH",
"23 1606 OFFCURVE",
"0 1519 OFFCURVE",
"0 1426 CURVE SMOOTH",
"0 389 LINE SMOOTH",
"0 200 OFFCURVE",
"98.9999 29 OFFCURVE",
"257 -64 CURVE SMOOTH",
"336 -111 OFFCURVE",
"422 -134 OFFCURVE",
"515 -134 CURVE SMOOTH",
"1575 -134 LINE SMOOTH",
"1767 -134 OFFCURVE",
"1935 -34 OFFCURVE",
"2028 127 CURVE SMOOTH",
"2074 208 OFFCURVE",
"2097 295 OFFCURVE",
"2097 389 CURVE SMOOTH",
"2097 1426 LINE SMOOTH",
"2097 1613 OFFCURVE",
"1998 1786 OFFCURVE",
"1837 1879 CURVE SMOOTH",
"1756 1926 OFFCURVE",
"1669 1949 OFFCURVE",
"1575 1949 CURVE SMOOTH"
);
},
{
closed = 1;
nodes = (
"1557 410 LINE",
"541 410 LINE",
"541 1401 LINE",
"1557 1401 LINE"
);
}
);
width = 2097;
}
);
unicode = F010;
},
{
glyphname = qtype_single_select_circle;
layers = (
{
layerId = "459508BE-3C3A-46DA-A777-BF75D91E99BF";
name = Regular;
paths = (
{
closed = 1;
nodes = (
"770 1959 OFFCURVE",
"499 1842 OFFCURVE",
"308 1651 CURVE SMOOTH",
"117 1460 OFFCURVE",
"0 1187 OFFCURVE",
"0 907 CURVE SMOOTH",
"0 626 OFFCURVE",
"117 354 OFFCURVE",
"308 163 CURVE SMOOTH",
"499 -28 OFFCURVE",
"770 -144 OFFCURVE",
"1049 -144 CURVE SMOOTH",
"1162 -144 OFFCURVE",
"1272 -126 OFFCURVE",
"1380 -91 CURVE SMOOTH",
"1587 -22 OFFCURVE",
"1759 104 OFFCURVE",
"1895 285 CURVE SMOOTH",
"2024 458 OFFCURVE",
"2098 679 OFFCURVE",
"2098 907 CURVE SMOOTH",
"2098 1292 OFFCURVE",
"1894 1627 OFFCURVE",
"1579 1815 CURVE SMOOTH",
"1418 1911 OFFCURVE",
"1241 1959 OFFCURVE",
"1049 1959 CURVE SMOOTH"
);
},
{
closed = 1;
nodes = (
"1332 1403 OFFCURVE",
"1554 1184 OFFCURVE",
"1554 907 CURVE SMOOTH",
"1554 772 OFFCURVE",
"1499 642 OFFCURVE",
"1408 549 CURVE SMOOTH",
"1317 456 OFFCURVE",
"1186 399 OFFCURVE",
"1049 399 CURVE SMOOTH",
"865 399 OFFCURVE",
"699 498 OFFCURVE",
"609 654 CURVE SMOOTH",
"564 731 OFFCURVE",
"541 816 OFFCURVE",
"541 907 CURVE SMOOTH",
"541 1088 OFFCURVE",
"639 1250 OFFCURVE",
"795 1338 CURVE SMOOTH",
"872 1381 OFFCURVE",
"957 1403 OFFCURVE",
"1049 1403 CURVE SMOOTH"
);
}
);
width = 2098;
}
);
unicode = F011;
},
{
glyphname = dashboard_reports;
layers = (
{
layerId = "459508BE-3C3A-46DA-A777-BF75D91E99BF";
name = Regular;
paths = (
{
closed = 1;
nodes = (
"0 -115 LINE",
"0 1930 LINE",
"219 1930 LINE",
"219 104 LINE",
"1976 104 LINE",
"1976 -115 LINE"
);
},
{
closed = 1;
nodes = (
"1607 1261 LINE",
"1259 856 LINE",
"879 1157 LINE",
"323 520 LINE",
"463 393 LINE",
"902 902 LINE",
"1283 601 LINE",
"1745 1157 LINE",
"1907 1029 LINE",
"1907 1503 LINE",
"1433 1387 LINE"
);
}
);
width = 1976;
}
);
unicode = F012;
},
{
glyphname = dashboard_data;
layers = (
{
layerId = "459508BE-3C3A-46DA-A777-BF75D91E99BF";
name = Regular;
paths = (
{
closed = 1;
nodes = (
"0 -115 LINE",
"0 1930 LINE",
"221 1930 LINE",
"221 106 LINE",
"1970 106 LINE",
"1970 -115 LINE"
);
},
{
closed = 1;
nodes = (
"1837 1829 LINE",
"1837 234 LINE",
"1423 234 LINE",
"1423 1829 LINE"
);
},
{
closed = 1;
nodes = (
"766 1114 LINE",
"766 234 LINE",
"352 234 LINE",
"352 1114 LINE"
);
},
{
closed = 1;
nodes = (
"1318 757 LINE",
"1318 234 LINE",
"893 234 LINE",
"893 757 LINE"
);
}
);
width = 1970;
}
);
unicode = F013;
},
{
glyphname = dashboard_users;
layers = (
{
layerId = "459508BE-3C3A-46DA-A777-BF75D91E99BF";
name = Regular;
paths = (
{
closed = 1;
nodes = (
"1023 967.999 OFFCURVE",
"1035 951 OFFCURVE",
"1038 944 CURVE",
"1057 889 OFFCURVE",
"1002 765 OFFCURVE",
"949 736 CURVE SMOOTH",
"916 718 OFFCURVE",
"818 678 OFFCURVE",
"655 617 CURVE SMOOTH",
"522 569 OFFCURVE",
"447 539 OFFCURVE",
"430 527 CURVE",
"384 499 OFFCURVE",
"351 454 OFFCURVE",
"330 392 CURVE SMOOTH",
"317 355 OFFCURVE",
"305 228 OFFCURVE",
"294 11 CURVE",
"303 3 OFFCURVE",
"313 -4 OFFCURVE",
"323 -9 CURVE",
"339 -18 OFFCURVE",
"368 -28 OFFCURVE",
"410 -40 CURVE SMOOTH",
"455 -54 OFFCURVE",
"509 -66 OFFCURVE",
"572 -76 CURVE SMOOTH",
"736 -102 OFFCURVE",
"958 -115 OFFCURVE",
"1238 -115 CURVE SMOOTH",
"1526 -115 OFFCURVE",
"1863 -98.9999 OFFCURVE",
"2058 -40 CURVE SMOOTH",
"2102 -27 OFFCURVE",
"2132 -17 OFFCURVE",
"2149 -8 CURVE",
"2162 -2 OFFCURVE",
"2173 5 OFFCURVE",
"2183 14 CURVE",
"2181 62 LINE SMOOTH",
"2173 185 OFFCURVE",
"2165 336 OFFCURVE",
"2146 392 CURVE SMOOTH",
"2103 515 OFFCURVE",
"2083 522 OFFCURVE",
"1822 617 CURVE SMOOTH",
"1663 676 OFFCURVE",
"1564 715 OFFCURVE",
"1527 736 CURVE SMOOTH",
"1501 751 OFFCURVE",
"1480 782 OFFCURVE",
"1463 827 CURVE SMOOTH",
"1426 916 OFFCURVE",
"1426 942 OFFCURVE",
"1474 992.999 CURVE SMOOTH",
"1529 1053 OFFCURVE",
"1586 1151 OFFCURVE",
"1607 1235 CURVE SMOOTH",
"1647 1382 OFFCURVE",
"1663 1639 OFFCURVE",
"1551 1790 CURVE SMOOTH",
"1486 1880 OFFCURVE",
"1384 1926 OFFCURVE",
"1245 1929 CURVE",
"1237 1930 LINE",
"1232 1929 LINE",
"1095 1926 OFFCURVE",
"991.999 1880 OFFCURVE",
"925 1790 CURVE SMOOTH",
"870 1717 OFFCURVE",
"840 1608 OFFCURVE",
"840 1501 CURVE SMOOTH",
"839 1398 OFFCURVE",
"849 1309 OFFCURVE",
"869 1235 CURVE SMOOTH",
"892 1150 OFFCURVE",
"948 1050 OFFCURVE",
"1001 992.999 CURVE SMOOTH"
);
},
{
closed = 1;
nodes = (
"832 1721 LINE",
"832 1770 LINE",
"723 1770 LINE",
"687 1769 LINE",
"687 1763 LINE",
"607 1743 OFFCURVE",
"575 1722 OFFCURVE",
"520 1649 CURVE SMOOTH",
"469 1581 OFFCURVE",
"439 1479 OFFCURVE",
"435 1394 CURVE SMOOTH",
"431 1316 OFFCURVE",
"436 1245 OFFCURVE",
"450 1180 CURVE SMOOTH",
"453 1165 OFFCURVE",
"456 1148 OFFCURVE",
"461 1131 CURVE SMOOTH",
"484 1047 OFFCURVE",
"535 958 OFFCURVE",
"587 901 CURVE",
"594 894 LINE",
"594 888 LINE",
"593 872 OFFCURVE",
"576 843 OFFCURVE",
"567 838 CURVE SMOOTH",
"545 825 OFFCURVE",
"471 796 OFFCURVE",
"346 749 CURVE SMOOTH",
"110 661 OFFCURVE",
"80 643 OFFCURVE",
"35 515 CURVE SMOOTH",
"19 468 OFFCURVE",
"8 349 OFFCURVE",
"0.999999 159 CURVE",
"0 154 LINE",
"0 142 LINE",
"2 134 LINE",
"5 128 LINE",
"6 127 OFFCURVE",
"5 124 OFFCURVE",
"4 120 CURVE",
"4 119 OFFCURVE",
"4 118 OFFCURVE",
"3 117 CURVE SMOOTH",
"2 116 OFFCURVE",
"2 115 OFFCURVE",
"2 114 CURVE",
"0.999999 112 OFFCURVE",
"4 109 OFFCURVE",
"11 105 CURVE",
"18 99.9999 OFFCURVE",
"28 94.9999 OFFCURVE",
"39 91 CURVE",
"54 84 OFFCURVE",
"105 64 OFFCURVE",
"193 32 CURVE SMOOTH",
"246 13 LINE",
"242 69 LINE",
"240 130 LINE",
"239 157 LINE",
"214 165 LINE",
"191 171 OFFCURVE",
"176 175 OFFCURVE",
"169 176 CURVE SMOOTH",
"160 177 OFFCURVE",
"149 180 OFFCURVE",
"137 184 CURVE",
"137 200 LINE",
"144 353 OFFCURVE",
"152 443 OFFCURVE",
"161 470 CURVE SMOOTH",
"172 502 OFFCURVE",
"183 523 OFFCURVE",
"194 533 CURVE",
"209 548 OFFCURVE",
"251 569 OFFCURVE",
"322 596 CURVE",
"329 599 OFFCURVE",
"353 608 OFFCURVE",
"393 623 CURVE SMOOTH",
"535 677 OFFCURVE",
"615 710 OFFCURVE",
"633 721 CURVE",
"684 749 OFFCURVE",
"722 816 OFFCURVE",
"727 875 CURVE SMOOTH",
"732 924 OFFCURVE",
"727 941 OFFCURVE",
"706 969.999 CURVE",
"705 970.999 LINE",
"704 972.999 LINE",
"701 975.999 LINE",
"701 976.999 LINE",
"698 979.999 LINE",
"696 980.999 OFFCURVE",
"694 982.999 OFFCURVE",
"693 984.999 CURVE",
"686 991.999 LINE",
"667 1013 OFFCURVE",
"648 1040 OFFCURVE",
"631 1072 CURVE SMOOTH",
"566 1188 OFFCURVE",
"558 1331 OFFCURVE",
"577 1440 CURVE SMOOTH",
"586 1494 OFFCURVE",
"603 1537 OFFCURVE",
"627 1569 CURVE SMOOTH",
"656 1608 LINE SMOOTH",
"673 1631 OFFCURVE",
"708 1633 OFFCURVE",
"721 1634 CURVE",
"734 1634 OFFCURVE",
"745 1634 OFFCURVE",
"755 1635 CURVE",
"763 1635 LINE",
"786 1634 LINE",
"798 1655 LINE",
"829 1713 LINE"
);
},
{
closed = 1;
nodes = (
"1742 1770 LINE",
"1633 1770 LINE",
"1633 1721 LINE",
"1638 1713 LINE",
"1669 1655 LINE",
"1679 1634 LINE",
"1703 1635 LINE",
"1710 1635 LINE",
"1719 1634 OFFCURVE",
"1729 1634 OFFCURVE",
"1742 1634 CURVE",
"1763 1633 OFFCURVE",
"1776 1631 OFFCURVE",
"1782 1628 CURVE",
"1794 1624 LINE",
"1799 1623 OFFCURVE",
"1822 1593 OFFCURVE",
"1838 1569 CURVE SMOOTH",
"1863 1534 OFFCURVE",
"1881 1489 OFFCURVE",
"1890 1434 CURVE SMOOTH",
"1917 1253 OFFCURVE",
"1875 1104 OFFCURVE",
"1779 991.999 CURVE",
"1779 990.999 OFFCURVE",
"1778 989.999 OFFCURVE",
"1777 988.999 CURVE SMOOTH",
"1771 982.999 LINE",
"1768 978.999 LINE",
"1765 975.999 LINE",
"1765 974.999 LINE",
"1761 972.999 LINE",
"1761 970.999 LINE",
"1760 969.999 LINE",
"1741 949 OFFCURVE",
"1735 928 OFFCURVE",
"1738 875 CURVE",
"1745 814 OFFCURVE",
"1781 749 OFFCURVE",
"1832 721 CURVE SMOOTH",
"1851 710 OFFCURVE",
"1931 678 OFFCURVE",
"2072 623 CURVE SMOOTH",
"2177 583 OFFCURVE",
"2233 560 OFFCURVE",
"2242 555 CURVE",
"2271 536 OFFCURVE",
"2291 508 OFFCURVE",
"2304 470 CURVE SMOOTH",
"2313 445 OFFCURVE",
"2321 355 OFFCURVE",
"2328 200 CURVE",
"2328 197 OFFCURVE",
"2328 194 OFFCURVE",
"2329 192 CURVE",
"2329 184 LINE",
"2317 180 OFFCURVE",
"2306 177 OFFCURVE",
"2297 176 CURVE SMOOTH",
"2290 175 OFFCURVE",
"2274 171 OFFCURVE",
"2251 165 CURVE",
"2226 157 LINE",
"2225 130 LINE",
"2223 69 LINE",
"2221 13 LINE",
"2273 32 LINE SMOOTH",
"2342 57 OFFCURVE",
"2386 74 OFFCURVE",
"2404 82 CURVE SMOOTH",
"2457 106 LINE",
"2462 109 OFFCURVE",
"2464 114 OFFCURVE",
"2463 119 CURVE SMOOTH",
"2462 124 OFFCURVE",
"2461 127 OFFCURVE",
"2462 128 CURVE",
"2463 134 LINE",
"2466 142 LINE",
"2465 149 LINE",
"2465 159 LINE",
"2458 349 OFFCURVE",
"2447 468 OFFCURVE",
"2431 515 CURVE SMOOTH",
"2386 643 OFFCURVE",
"2360 658 OFFCURVE",
"2119 749 CURVE SMOOTH",
"1990 798 OFFCURVE",
"1916 827 OFFCURVE",
"1898 838 CURVE",
"1889 843 OFFCURVE",
"1873 872 OFFCURVE",
"1872 888 CURVE",
"1872 894 LINE",
"1876 898 LINE",
"1878 901 LINE",
"1931 961 OFFCURVE",
"1984 1048 OFFCURVE",
"2005 1131 CURVE SMOOTH",
"2016 1180 LINE SMOOTH",
"2044 1315 OFFCURVE",
"2046 1510 OFFCURVE",
"1945 1649 CURVE",
"1892 1706 OFFCURVE",
"1826 1754 OFFCURVE",
"1779 1763 CURVE",
"1779 1769 LINE"
);
},
{
closed = 1;
nodes = (
"867 737 LINE",
"856 746 LINE",
"820 778 OFFCURVE",
"793 833 OFFCURVE",
"790 877 CURVE SMOOTH",
"785 929 OFFCURVE",
"791 947 OFFCURVE",
"827 982.999 CURVE SMOOTH",
"842 997.999 OFFCURVE",
"857 1019 OFFCURVE",
"874 1048 CURVE",
"895 1081 LINE",
"917 1048 LINE SMOOTH",
"927 1032 OFFCURVE",
"939 1015 OFFCURVE",
"953 997.999 CURVE",
"963 982.999 LINE",
"954 967.999 LINE",
"934 940 OFFCURVE",
"919 921 OFFCURVE",
"909 910 CURVE",
"904 905 OFFCURVE",
"901 901 OFFCURVE",
"898 897 CURVE",
"898 887 LINE",
"899 866 OFFCURVE",
"916 834 OFFCURVE",
"931 826 CURVE",
"942 822 LINE",
"970.999 807 LINE",
"950 782 LINE",
"945 775 OFFCURVE",
"939 770 OFFCURVE",
"931 767 CURVE",
"922 761 OFFCURVE",
"905 753 OFFCURVE",
"882 743 CURVE SMOOTH"
);
},
{
closed = 1;
nodes = (
"1602 743 LINE",
"1592 747 LINE",
"1568 758 OFFCURVE",
"1552 766 OFFCURVE",
"1543 771 CURVE",
"1539 773 OFFCURVE",
"1533 778 OFFCURVE",
"1526 785 CURVE",
"1510 803 LINE",
"1533 815 LINE",
"1538 817 OFFCURVE",
"1541 819 OFFCURVE",
"1543 821 CURVE",
"1559 830 OFFCURVE",
"1578 862 OFFCURVE",
"1579 886 CURVE",
"1579 898 LINE",
"1576 904 OFFCURVE",
"1572 909 OFFCURVE",
"1568 913 CURVE SMOOTH",
"1555 926 OFFCURVE",
"1540 945 OFFCURVE",
"1522 970.999 CURVE",
"1515 982.999 LINE",
"1523 992.999 LINE SMOOTH",
"1534 1006 OFFCURVE",
"1546 1023 OFFCURVE",
"1560 1045 CURVE SMOOTH",
"1576 1069 LINE",
"1591 1043 LINE",
"1608 1017 OFFCURVE",
"1624 994.999 OFFCURVE",
"1639 977.999 CURVE",
"1674 943 OFFCURVE",
"1680 922 OFFCURVE",
"1675 877 CURVE",
"1672 833 OFFCURVE",
"1647 782 OFFCURVE",
"1611 751 CURVE SMOOTH"
);
}
);
width = 2466;
}
);
unicode = F014;
},
{
glyphname = dashboard_settings;
layers = (
{
layerId = "459508BE-3C3A-46DA-A777-BF75D91E99BF";
name = Regular;
paths = (
{
closed = 1;
nodes = (
"1742 682 LINE",
"1739 685 LINE",
"1759 762 OFFCURVE",
"1769 833 OFFCURVE",
"1769 897 CURVE SMOOTH",
"1769 981.999 OFFCURVE",
"1758 1059 OFFCURVE",
"1735 1129 CURVE",
"1897 1296 LINE",
"1914 1307 OFFCURVE",
"1920 1334 OFFCURVE",
"1909 1351 CURVE SMOOTH",
"1774 1563 LINE SMOOTH",
"1763 1580 OFFCURVE",
"1736 1586 OFFCURVE",
"1719 1575 CURVE",
"1493 1497 LINE",
"1402 1576 OFFCURVE",
"1301 1631 OFFCURVE",
"1192 1662 CURVE",
"1137 1894 LINE",
"1137 1915 OFFCURVE",
"1119 1933 OFFCURVE",
"1096 1933 CURVE SMOOTH",
"845 1933 LINE SMOOTH",
"822 1933 OFFCURVE",
"806 1915 OFFCURVE",
"806 1894 CURVE",
"752 1662 LINE",
"639 1629 OFFCURVE",
"536 1572 OFFCURVE",
"441 1490 CURVE",
"439 1493 LINE",
"194 1575 LINE",
"175 1586 OFFCURVE",
"150 1580 OFFCURVE",
"139 1561 CURVE SMOOTH",
"8 1349 LINE",
"-4 1332 OFFCURVE",
"2 1305 OFFCURVE",
"22 1294 CURVE",
"201 1111 LINE",
"203 1109 LINE",
"184 1036 OFFCURVE",
"174 965 OFFCURVE",
"174 897 CURVE SMOOTH",
"174 824 OFFCURVE",
"185 751 OFFCURVE",
"206 678 CURVE",
"49 515 LINE",
"32 504 OFFCURVE",
"27 478 OFFCURVE",
"38 461 CURVE SMOOTH",
"171 249 LINE SMOOTH",
"182 232 OFFCURVE",
"209 227 OFFCURVE",
"226 238 CURVE",
"437 311 LINE",
"534 225 OFFCURVE",
"640 166 OFFCURVE",
"757 133 CURVE",
"806 -80 LINE",
"806 -103 OFFCURVE",
"824 -119 OFFCURVE",
"845 -119 CURVE SMOOTH",
"1096 -119 LINE SMOOTH",
"1119 -119 OFFCURVE",
"1135 -101 OFFCURVE",
"1135 -80 CURVE",
"1185 135 LINE",
"1304 169 OFFCURVE",
"1409 227 OFFCURVE",
"1499 309 CURVE",
"1502 306 LINE",
"1746 224 LINE",
"1763 212 OFFCURVE",
"1790 218 OFFCURVE",
"1801 238 CURVE",
"1934 449 LINE",
"1945 462 OFFCURVE",
"1939 488 OFFCURVE",
"1922 499 CURVE"
);
},
{
closed = 1;
nodes = (
"433 694 OFFCURVE",
"408 788 OFFCURVE",
"408 890 CURVE SMOOTH",
"408 1094 OFFCURVE",
"517 1279 OFFCURVE",
"691 1380 CURVE SMOOTH",
"778 1430 OFFCURVE",
"872 1455 OFFCURVE",
"972.999 1455 CURVE SMOOTH",
"1177 1455 OFFCURVE",
"1361 1347 OFFCURVE",
"1462 1173 CURVE SMOOTH",
"1512 1086 OFFCURVE",
"1537 990.999 OFFCURVE",
"1537 890 CURVE SMOOTH",
"1537 739 OFFCURVE",
"1475 594 OFFCURVE",
"1372 491 CURVE SMOOTH",
"1269 388 OFFCURVE",
"1124 326 OFFCURVE",
"972.999 326 CURVE SMOOTH",
"769 326 OFFCURVE",
"584 433 OFFCURVE",
"484 607 CURVE SMOOTH"
);
}
);
width = 1940;
}
);
unicode = F015;
},
{
glyphname = dashboard_help;
layers = (
{
layerId = "459508BE-3C3A-46DA-A777-BF75D91E99BF";
name = Regular;
paths = (
{
closed = 1;
nodes = (
"371 1741 OFFCURVE",
"187 1558 OFFCURVE",
"80 1303 CURVE SMOOTH",
"27 1176 OFFCURVE",
"0 1044 OFFCURVE",
"0 907 CURVE SMOOTH",
"0 634 OFFCURVE",
"114 369 OFFCURVE",
"299 184 CURVE SMOOTH",
"486 -0.999999 OFFCURVE",
"751 -115 OFFCURVE",
"1023 -115 CURVE SMOOTH",
"1295 -115 OFFCURVE",
"1560 -0.999999 OFFCURVE",
"1747 184 CURVE SMOOTH",
"1932 369 OFFCURVE",
"2046 634 OFFCURVE",
"2046 907 CURVE SMOOTH",
"2046 1180 OFFCURVE",
"1932 1448 OFFCURVE",
"1747 1632 CURVE SMOOTH",
"1560 1817 OFFCURVE",
"1296 1930 OFFCURVE",
"1023 1930 CURVE SMOOTH",
"884 1930 OFFCURVE",
"752 1903 OFFCURVE",
"626 1849 CURVE SMOOTH"
);
},
{
closed = 1;
nodes = (
"1535 1561 OFFCURVE",
"1680 1416 OFFCURVE",
"1764 1217 CURVE SMOOTH",
"1806 1117 OFFCURVE",
"1827 1014 OFFCURVE",
"1827 907 CURVE SMOOTH",
"1827 615 OFFCURVE",
"1672 354 OFFCURVE",
"1425 211 CURVE SMOOTH",
"1302 139 OFFCURVE",
"1168 103 OFFCURVE",
"1023 103 CURVE SMOOTH",
"810 103 OFFCURVE",
"601 192 OFFCURVE",
"454 339 CURVE SMOOTH",
"307 484 OFFCURVE",
"218 694 OFFCURVE",
"218 907 CURVE SMOOTH",
"218 1120 OFFCURVE",
"307 1329 OFFCURVE",
"454 1476 CURVE SMOOTH",
"601 1623 OFFCURVE",
"810 1712 OFFCURVE",
"1023 1712 CURVE SMOOTH",
"1133 1712 OFFCURVE",
"1237 1691 OFFCURVE",
"1335 1648 CURVE SMOOTH"
);
},
{
closed = 1;
nodes = (
"1144 677 LINE",
"898 677 LINE",
"898 749 LINE SMOOTH",
"898 780 OFFCURVE",
"903 807 OFFCURVE",
"912 832 CURVE",
"917 848 OFFCURVE",
"927 864 OFFCURVE",
"934 874 CURVE SMOOTH",
"941 884 OFFCURVE",
"965 907 OFFCURVE",
"973.999 916 CURVE",
"982.999 924 OFFCURVE",
"1024 960 OFFCURVE",
"1040 972.999 CURVE",
"1112 1038 OFFCURVE",
"1166 1083 OFFCURVE",
"1166 1142 CURVE SMOOTH",
"1166 1210 OFFCURVE",
"1113 1256 OFFCURVE",
"1048 1256 CURVE SMOOTH",
"948 1256 OFFCURVE",
"891 1195 OFFCURVE",
"886 1111 CURVE",
"633 1127 LINE",
"660 1355 OFFCURVE",
"810 1482 OFFCURVE",
"1042 1482 CURVE SMOOTH",
"1093 1482 OFFCURVE",
"1140 1475 OFFCURVE",
"1184 1462 CURVE SMOOTH",
"1279 1432 OFFCURVE",
"1345 1377 OFFCURVE",
"1381 1298 CURVE",
"1400 1261 OFFCURVE",
"1410 1215 OFFCURVE",
"1410 1160 CURVE SMOOTH",
"1410 1033 OFFCURVE",
"1356 953 OFFCURVE",
"1208 838 CURVE",
"1165 802 OFFCURVE",
"1144 764 OFFCURVE",
"1144 725 CURVE SMOOTH"
);
},
{
closed = 1;
nodes = (
"891 514 OFFCURVE",
"902 530 OFFCURVE",
"914 542 CURVE SMOOTH",
"943 571 OFFCURVE",
"978.999 585 OFFCURVE",
"1022 585 CURVE SMOOTH",
"1106 585 OFFCURVE",
"1171 520 OFFCURVE",
"1171 435 CURVE SMOOTH",
"1171 350 OFFCURVE",
"1106 285 OFFCURVE",
"1022 285 CURVE SMOOTH",
"935 285 OFFCURVE",
"871 350 OFFCURVE",
"871 435 CURVE SMOOTH",
"871 456 OFFCURVE",
"875 476 OFFCURVE",
"882 494 CURVE"
);
}
);
width = 2045;
}
);
unicode = F016;
},
{
glyphname = dashboard_exchange;
layers = (
{
layerId = "459508BE-3C3A-46DA-A777-BF75D91E99BF";
name = Regular;
paths = (
{
closed = 1;
nodes = (
"1681 1930 LINE SMOOTH",
"1876 1930 OFFCURVE",
"2003 1826 OFFCURVE",
"2003 1635 CURVE SMOOTH",
"2003 963 LINE SMOOTH",
"2003 768 OFFCURVE",
"1898 641 OFFCURVE",
"1709 641 CURVE SMOOTH",
"1392 641 LINE",
"1422 529 OFFCURVE",
"1437 462 OFFCURVE",
"1437 440 CURVE SMOOTH",
"1437 413 OFFCURVE",
"1412 393 OFFCURVE",
"1393 393 CURVE SMOOTH",
"1374 393 LINE SMOOTH",
"1366 393 OFFCURVE",
"1359 396 OFFCURVE",
"1353 402 CURVE SMOOTH",
"1025 731 LINE SMOOTH",
"1020 736 OFFCURVE",
"1017 743 OFFCURVE",
"1017 752 CURVE SMOOTH",
"1017 761 OFFCURVE",
"1020 768 OFFCURVE",
"1025 773 CURVE SMOOTH",
"1353 1101 LINE SMOOTH",
"1359 1107 OFFCURVE",
"1366 1110 OFFCURVE",
"1374 1110 CURVE SMOOTH",
"1393 1110 LINE SMOOTH",
"1412 1110 OFFCURVE",
"1437 1090 OFFCURVE",
"1437 1063 CURVE SMOOTH",
"1437 1044 OFFCURVE",
"1429 991.999 OFFCURVE",
"1412 905 CURVE SMOOTH",
"1403 862 LINE",
"1665 861 LINE SMOOTH",
"1736 861 OFFCURVE",
"1785 928 OFFCURVE",
"1785 996.999 CURVE SMOOTH",
"1785 1592 LINE SMOOTH",
"1785 1663 OFFCURVE",
"1717 1712 OFFCURVE",
"1648 1712 CURVE SMOOTH",
"299 1712 LINE SMOOTH",
"248 1712 OFFCURVE",
"218 1648 OFFCURVE",
"218 1559 CURVE",
"217 1556 OFFCURVE",
"216 1551 OFFCURVE",
"216 1548 CURVE",
"208 1512 OFFCURVE",
"177 1457 OFFCURVE",
"110 1457 CURVE SMOOTH",
"81 1457 OFFCURVE",
"59 1458 OFFCURVE",
"43 1461 CURVE",
"24 1463 OFFCURVE",
"13 1465 OFFCURVE",
"8 1468 CURVE",
"0 1471 LINE",
"0 1815 OFFCURVE",
"94.9999 1930 OFFCURVE",
"278 1930 CURVE SMOOTH"
);
},
{
closed = 1;
nodes = (
"1837 346 OFFCURVE",
"1863 358 OFFCURVE",
"1894 358 CURVE SMOOTH",
"2003 355 LINE",
"2003 31 OFFCURVE",
"1911 -115 OFFCURVE",
"1726 -115 CURVE SMOOTH",
"322 -115 LINE SMOOTH",
"127 -115 OFFCURVE",
"0 -9.99999 OFFCURVE",
"0 179 CURVE SMOOTH",
"0 853 LINE SMOOTH",
"0 1048 OFFCURVE",
"104 1174 OFFCURVE",
"295 1174 CURVE SMOOTH",
"611 1174 LINE",
"582 1287 OFFCURVE",
"567 1355 OFFCURVE",
"567 1376 CURVE SMOOTH",
"567 1404 OFFCURVE",
"590 1423 OFFCURVE",
"610 1423 CURVE SMOOTH",
"630 1423 LINE SMOOTH",
"637 1423 OFFCURVE",
"644 1420 OFFCURVE",
"650 1414 CURVE SMOOTH",
"977.999 1085 LINE SMOOTH",
"982.999 1080 OFFCURVE",
"985.999 1073 OFFCURVE",
"985.999 1064 CURVE SMOOTH",
"985.999 1055 OFFCURVE",
"982.999 1048 OFFCURVE",
"977.999 1043 CURVE SMOOTH",
"650 715 LINE SMOOTH",
"644 709 OFFCURVE",
"637 706 OFFCURVE",
"630 706 CURVE SMOOTH",
"610 706 LINE SMOOTH",
"590 706 OFFCURVE",
"567 725 OFFCURVE",
"567 753 CURVE SMOOTH",
"567 772 OFFCURVE",
"575 824 OFFCURVE",
"592 911 CURVE SMOOTH",
"600 954 LINE",
"338 955 LINE SMOOTH",
"267 955 OFFCURVE",
"218 888 OFFCURVE",
"218 819 CURVE SMOOTH",
"218 224 LINE SMOOTH",
"218 153 OFFCURVE",
"285 104 OFFCURVE",
"354 104 CURVE SMOOTH",
"1703 104 LINE SMOOTH",
"1755 104 OFFCURVE",
"1785 166 OFFCURVE",
"1785 257 CURVE",
"1788 268 LINE SMOOTH",
"1793 289 OFFCURVE",
"1802 307 OFFCURVE",
"1816 323 CURVE SMOOTH"
);
}
);
width = 2003;
}
);
unicode = F017;
},
{
glyphname = dashboard_messaging;
layers = (
{
layerId = "459508BE-3C3A-46DA-A777-BF75D91E99BF";
name = Regular;
paths = (
{
closed = 1;
nodes = (
"322 120 LINE SMOOTH",
"127 120 OFFCURVE",
"0 225 OFFCURVE",
"0 416 CURVE SMOOTH",
"0 1522 LINE SMOOTH",
"0 1711 OFFCURVE",
"127 1817 OFFCURVE",
"322 1817 CURVE SMOOTH",
"1793 1817 LINE SMOOTH",
"1988 1817 OFFCURVE",
"2115 1713 OFFCURVE",
"2115 1522 CURVE SMOOTH",
"2115 416 LINE SMOOTH",
"2115 225 OFFCURVE",
"1988 120 OFFCURVE",
"1793 120 CURVE SMOOTH",
"1259 120 LINE",
"1235 85 LINE SMOOTH",
"1190 22 OFFCURVE",
"1096 -50 OFFCURVE",
"1008 -101 CURVE SMOOTH",
"933 -145 OFFCURVE",
"858 -182 OFFCURVE",
"784 -213 CURVE SMOOTH",
"738 -231 LINE",
"717 -192 LINE",
"736 -177 LINE",
"805 -112 OFFCURVE",
"885 -20 OFFCURVE",
"885 92.9999 CURVE SMOOTH",
"885 99.9999 OFFCURVE",
"884 109 OFFCURVE",
"881 120 CURVE"
);
},
{
closed = 1;
nodes = (
"1897 1478 LINE SMOOTH",
"1897 1549 OFFCURVE",
"1829 1598 OFFCURVE",
"1760 1598 CURVE SMOOTH",
"355 1598 LINE SMOOTH",
"286 1598 OFFCURVE",
"219 1549 OFFCURVE",
"219 1478 CURVE SMOOTH",
"219 459 LINE SMOOTH",
"219 388 OFFCURVE",
"286 339 OFFCURVE",
"355 339 CURVE SMOOTH",
"1760 339 LINE SMOOTH",
"1829 339 OFFCURVE",
"1897 388 OFFCURVE",
"1897 459 CURVE SMOOTH"
);
}
);
width = 2115;
}
);
unicode = F018;
},
{
glyphname = qtype_balance;
layers = (
{
layerId = "459508BE-3C3A-46DA-A777-BF75D91E99BF";
name = Regular;
paths = (
{
closed = 1;
nodes = (
"1502 665 LINE",
"1613 1198 LINE",
"1882 1198 LINE SMOOTH",
"1973 1198 OFFCURVE",
"2048 1274 OFFCURVE",
"2048 1365 CURVE SMOOTH",
"2048 1456 OFFCURVE",
"1973 1530 OFFCURVE",
"1882 1530 CURVE SMOOTH",
"1683 1530 LINE",
"1727 1739 LINE SMOOTH",
"1744 1828 OFFCURVE",
"1686 1919 OFFCURVE",
"1598 1935 CURVE SMOOTH",
"1587 1937 OFFCURVE",
"1575 1938 OFFCURVE",
"1563 1938 CURVE SMOOTH",
"1486 1938 OFFCURVE",
"1417 1883 OFFCURVE",
"1401 1808 CURVE SMOOTH",
"1343 1530 LINE",
"973.999 1530 LINE",
"1018 1742 LINE SMOOTH",
"1035 1834 OFFCURVE",
"979.999 1920 OFFCURVE",
"889 1937 CURVE",
"876 1940 OFFCURVE",
"864 1942 OFFCURVE",
"855 1942 CURVE SMOOTH",
"778 1942 OFFCURVE",
"709 1886 OFFCURVE",
"693 1810 CURVE SMOOTH",
"635 1530 LINE",
"290 1530 LINE SMOOTH",
"199 1530 OFFCURVE",
"125 1456 OFFCURVE",
"125 1365 CURVE SMOOTH",
"125 1274 OFFCURVE",
"199 1198 OFFCURVE",
"290 1198 CURVE SMOOTH",
"565 1198 LINE",
"454 665 LINE",
"166 665 LINE SMOOTH",
"75 665 OFFCURVE",
"0 590 OFFCURVE",
"0 499 CURVE SMOOTH",
"0 408 OFFCURVE",
"75 333 OFFCURVE",
"166 333 CURVE SMOOTH",
"385 333 LINE",
"330 69 LINE SMOOTH",
"313 -20 OFFCURVE",
"370 -108 OFFCURVE",
"459 -127 CURVE SMOOTH",
"470 -129 OFFCURVE",
"482 -130 OFFCURVE",
"494 -130 CURVE SMOOTH",
"573 -130 OFFCURVE",
"640 -75 OFFCURVE",
"655 0.999999 CURVE SMOOTH",
"726 333 LINE",
"1094 333 LINE",
"1039 66 LINE SMOOTH",
"1020 -22 OFFCURVE",
"1078 -110 OFFCURVE",
"1167 -129 CURVE",
"1184 -132 OFFCURVE",
"1195 -134 OFFCURVE",
"1201 -134 CURVE SMOOTH",
"1280 -134 OFFCURVE",
"1348 -78 OFFCURVE",
"1363 -0.999999 CURVE SMOOTH",
"1433 333 LINE",
"1758 333 LINE SMOOTH",
"1849 333 OFFCURVE",
"1923 408 OFFCURVE",
"1923 499 CURVE SMOOTH",
"1923 590 OFFCURVE",
"1849 665 OFFCURVE",
"1758 665 CURVE SMOOTH"
);
},
{
closed = 1;
nodes = (
"1163 665 LINE",
"794 665 LINE",
"905 1198 LINE",
"1274 1198 LINE"
);
}
);
width = 2048;
}
);
unicode = F019;
},
{
glyphname = dashboard_chart;
layers = (
{
layerId = "459508BE-3C3A-46DA-A777-BF75D91E99BF";
name = Regular;
paths = (
{
closed = 1;
nodes = (
"180 1930 LINE",
"180 65 LINE",
"2044 65 LINE",
"2044 -115 LINE",
"0 -115 LINE",
"0 1930 LINE"
);
},
{
closed = 1;
nodes = (
"1770 1293 LINE",
"1838 1244 LINE",
"1750 1120 LINE",
"1830 1035 LINE",
"1778 984.999 LINE",
"1707 1060 LINE",
"1584 888 LINE",
"1590 876 OFFCURVE",
"1593 862 OFFCURVE",
"1593 847 CURVE SMOOTH",
"1593 798 OFFCURVE",
"1552 757 OFFCURVE",
"1503 757 CURVE SMOOTH",
"1459 757 OFFCURVE",
"1422 789 OFFCURVE",
"1414 832 CURVE",
"1266 879 LINE",
"1247 862 OFFCURVE",
"1226 853 OFFCURVE",
"1202 853 CURVE SMOOTH",
"1194 853 OFFCURVE",
"1183 855 OFFCURVE",
"1170 859 CURVE",
"988.999 700 LINE",
"990.999 693 OFFCURVE",
"991.999 686 OFFCURVE",
"991.999 679 CURVE SMOOTH",
"991.999 630 OFFCURVE",
"953 589 OFFCURVE",
"902 589 CURVE SMOOTH",
"853 589 OFFCURVE",
"815 627 OFFCURVE",
"812 675 CURVE",
"655 751 LINE",
"638 739 OFFCURVE",
"620 733 OFFCURVE",
"601 733 CURVE",
"338 226 LINE",
"263 265 LINE",
"527 772 LINE",
"516 788 OFFCURVE",
"511 805 OFFCURVE",
"511 823 CURVE SMOOTH",
"511 874 OFFCURVE",
"552 914 OFFCURVE",
"601 914 CURVE SMOOTH",
"650 914 OFFCURVE",
"688 875 OFFCURVE",
"691 827 CURVE",
"848 751 LINE",
"865 763 OFFCURVE",
"883 769 OFFCURVE",
"902 769 CURVE SMOOTH",
"913 769 OFFCURVE",
"924 767 OFFCURVE",
"934 763 CURVE",
"1115 923 LINE",
"1113 929 OFFCURVE",
"1112 936 OFFCURVE",
"1112 944 CURVE SMOOTH",
"1112 992.999 OFFCURVE",
"1153 1034 OFFCURVE",
"1202 1034 CURVE SMOOTH",
"1247 1034 OFFCURVE",
"1284 1002 OFFCURVE",
"1291 959 CURVE",
"1440 912 LINE",
"1457 929 OFFCURVE",
"1478 938 OFFCURVE",
"1503 938 CURVE SMOOTH",
"1509 938 LINE",
"1512 937 OFFCURVE",
"1514 937 OFFCURVE",
"1515 937 CURVE",
"1648 1122 LINE",
"1534 1244 LINE",
"1524 1240 OFFCURVE",
"1514 1238 OFFCURVE",
"1503 1238 CURVE SMOOTH",
"1483 1238 OFFCURVE",
"1465 1244 OFFCURVE",
"1449 1257 CURVE",
"1292 1169 LINE",
"1292 1168 OFFCURVE",
"1292 1167 OFFCURVE",
"1293 1165 CURVE",
"1293 1160 LINE SMOOTH",
"1293 1111 OFFCURVE",
"1253 1070 OFFCURVE",
"1202 1070 CURVE SMOOTH",
"1153 1070 OFFCURVE",
"1112 1111 OFFCURVE",
"1112 1160 CURVE SMOOTH",
"1112 1168 OFFCURVE",
"1113 1175 OFFCURVE",
"1115 1181 CURVE",
"946 1310 LINE",
"931 1302 OFFCURVE",
"917 1298 OFFCURVE",
"902 1298 CURVE SMOOTH",
"886 1298 OFFCURVE",
"870 1303 OFFCURVE",
"854 1312 CURVE",
"690 1201 LINE",
"691 1197 OFFCURVE",
"691 1191 OFFCURVE",
"691 1184 CURVE SMOOTH",
"691 1133 OFFCURVE",
"650 1094 OFFCURVE",
"601 1094 CURVE SMOOTH",
"556 1094 OFFCURVE",
"518 1129 OFFCURVE",
"511 1173 CURVE",
"290 1240 LINE",
"311 1309 LINE",
"532 1242 LINE",
"550 1263 OFFCURVE",
"573 1274 OFFCURVE",
"601 1274 CURVE SMOOTH",
"618 1274 OFFCURVE",
"634 1269 OFFCURVE",
"649 1260 CURVE",
"813 1372 LINE",
"812 1379 OFFCURVE",
"811 1384 OFFCURVE",
"811 1389 CURVE SMOOTH",
"811 1438 OFFCURVE",
"853 1479 OFFCURVE",
"902 1479 CURVE SMOOTH",
"951 1479 OFFCURVE",
"991.999 1438 OFFCURVE",
"991.999 1389 CURVE SMOOTH",
"991.999 1382 OFFCURVE",
"990.999 1374 OFFCURVE",
"988.999 1367 CURVE",
"1158 1239 LINE",
"1171 1246 OFFCURVE",
"1186 1250 OFFCURVE",
"1202 1250 CURVE SMOOTH",
"1222 1250 OFFCURVE",
"1240 1244 OFFCURVE",
"1257 1232 CURVE",
"1413 1320 LINE",
"1413 1329 LINE SMOOTH",
"1413 1378 OFFCURVE",
"1454 1419 OFFCURVE",
"1503 1419 CURVE SMOOTH",
"1552 1419 OFFCURVE",
"1593 1378 OFFCURVE",
"1593 1329 CURVE SMOOTH",
"1593 1315 OFFCURVE",
"1591 1303 OFFCURVE",
"1586 1293 CURVE",
"1691 1182 LINE"
);
},
{
closed = 1;
nodes = (
"918 1359 OFFCURVE",
"932 1372 OFFCURVE",
"932 1389 CURVE SMOOTH",
"932 1405 OFFCURVE",
"918 1419 OFFCURVE",
"902 1419 CURVE SMOOTH",
"885 1419 OFFCURVE",
"872 1405 OFFCURVE",
"872 1389 CURVE SMOOTH",
"872 1372 OFFCURVE",
"885 1359 OFFCURVE",
"902 1359 CURVE SMOOTH"
);
},
{
closed = 1;
nodes = (
"1520 1298 OFFCURVE",
"1533 1312 OFFCURVE",
"1533 1329 CURVE SMOOTH",
"1533 1345 OFFCURVE",
"1520 1359 OFFCURVE",
"1503 1359 CURVE SMOOTH",
"1487 1359 OFFCURVE",
"1473 1345 OFFCURVE",
"1473 1329 CURVE SMOOTH",
"1473 1312 OFFCURVE",
"1487 1298 OFFCURVE",
"1503 1298 CURVE SMOOTH"
);
},
{
closed = 1;
nodes = (
"585 1157 OFFCURVE",
"592 1154 OFFCURVE",
"601 1154 CURVE SMOOTH",
"618 1154 OFFCURVE",
"631 1168 OFFCURVE",
"631 1184 CURVE SMOOTH",
"631 1201 OFFCURVE",
"618 1214 OFFCURVE",
"601 1214 CURVE SMOOTH",
"584 1214 OFFCURVE",
"571 1201 OFFCURVE",
"571 1184 CURVE SMOOTH",
"571 1176 OFFCURVE",
"574 1169 OFFCURVE",
"580 1163 CURVE"
);
},
{
closed = 1;
nodes = (
"1219 1130 OFFCURVE",
"1233 1144 OFFCURVE",
"1233 1160 CURVE SMOOTH",
"1233 1177 OFFCURVE",
"1219 1190 OFFCURVE",
"1202 1190 CURVE SMOOTH",
"1186 1190 OFFCURVE",
"1172 1177 OFFCURVE",
"1172 1160 CURVE SMOOTH",
"1172 1144 OFFCURVE",
"1186 1130 OFFCURVE",
"1202 1130 CURVE SMOOTH"
);
},
{
closed = 1;
nodes = (
"1219 914 OFFCURVE",
"1233 927 OFFCURVE",
"1233 944 CURVE SMOOTH",
"1233 960 OFFCURVE",
"1219 973.999 OFFCURVE",
"1202 973.999 CURVE SMOOTH",
"1186 973.999 OFFCURVE",
"1172 960 OFFCURVE",
"1172 944 CURVE SMOOTH",
"1172 927 OFFCURVE",
"1186 914 OFFCURVE",
"1202 914 CURVE SMOOTH"
);
},
{
closed = 1;
nodes = (
"1520 817 OFFCURVE",
"1533 831 OFFCURVE",
"1533 847 CURVE SMOOTH",
"1533 864 OFFCURVE",
"1520 877 OFFCURVE",
"1503 877 CURVE SMOOTH",
"1487 877 OFFCURVE",
"1473 864 OFFCURVE",
"1473 847 CURVE SMOOTH",
"1473 831 OFFCURVE",
"1487 817 OFFCURVE",
"1503 817 CURVE SMOOTH"
);
},
{
closed = 1;
nodes = (
"585 796 OFFCURVE",
"592 793 OFFCURVE",
"601 793 CURVE SMOOTH",
"618 793 OFFCURVE",
"631 807 OFFCURVE",
"631 823 CURVE SMOOTH",
"631 840 OFFCURVE",
"618 853 OFFCURVE",
"601 853 CURVE SMOOTH",
"584 853 OFFCURVE",
"571 840 OFFCURVE",
"571 823 CURVE SMOOTH",
"571 815 OFFCURVE",
"574 808 OFFCURVE",
"580 802 CURVE"
);
},
{
closed = 1;
nodes = (
"918 649 OFFCURVE",
"932 662 OFFCURVE",
"932 679 CURVE SMOOTH",
"932 696 OFFCURVE",
"918 709 OFFCURVE",
"902 709 CURVE SMOOTH",
"885 709 OFFCURVE",
"872 696 OFFCURVE",
"872 679 CURVE SMOOTH",
"872 662 OFFCURVE",
"885 649 OFFCURVE",
"902 649 CURVE SMOOTH"
);
}
);
width = 2045;
}
);
unicode = F020;
},
{
glyphname = dashboard_forms;
layers = (
{
layerId = "459508BE-3C3A-46DA-A777-BF75D91E99BF";
name = Regular;
paths = (
{
closed = 1;
nodes = (
"991.999 1500 LINE",
"666 1832 LINE",
"0 1832 LINE",
"0 629 LINE",
"991.999 629 LINE"
);
},
{
closed = 1;
nodes = (
"849 772 LINE",
"143 772 LINE",
"143 1690 LINE",
"592 1690 LINE",
"592 1452 LINE",
"849 1452 LINE"
);
},
{
closed = 1;
nodes = (
"745 1237 LINE",
"241 1237 LINE",
"241 1292 LINE",
"745 1292 LINE"
);
},
{
closed = 1;
nodes = (
"1083 966 LINE",
"2045 966 LINE",
"2045 1207 LINE",
"1083 1207 LINE"
);
},
{
closed = 1;
nodes = (
"745 1079 LINE",
"241 1079 LINE",
"241 1134 LINE",
"745 1134 LINE"
);
},
{
closed = 1;
nodes = (
"745 920 LINE",
"241 920 LINE",
"241 975.999 LINE",
"745 975.999 LINE"
);
},
{
closed = 1;
nodes = (
"1083 633 LINE",
"2045 633 LINE",
"2045 874 LINE",
"1083 874 LINE"
);
},
{
closed = 1;
nodes = (
"1083 300 LINE",
"2045 300 LINE",
"2045 540 LINE",
"1083 540 LINE"
);
},
{
closed = 1;
nodes = (
"1083 -33 LINE",
"2045 -33 LINE",
"2045 207 LINE",
"1083 207 LINE"
);
}
);
width = 2046;
}
);
unicode = F021;
},
{
glyphname = dashboard_userreport;
layers = (
{
layerId = "459508BE-3C3A-46DA-A777-BF75D91E99BF";
name = Regular;
paths = (
{
closed = 1;
nodes = (
"2045 749 OFFCURVE",
"1910 503 OFFCURVE",
"1693 356 CURVE SMOOTH",
"1584 283 OFFCURVE",
"1464 239 OFFCURVE",
"1332 225 CURVE",
"1333 208 OFFCURVE",
"1337 153 OFFCURVE",
"1342 59 CURVE",
"1337 54 OFFCURVE",
"1329 49 OFFCURVE",
"1319 43 CURVE",
"1308 37 OFFCURVE",
"1287 29 OFFCURVE",
"1254 20 CURVE SMOOTH",
"1189 0 OFFCURVE",
"1110 -13 OFFCURVE",
"947 -24 CURVE SMOOTH",
"865 -30 OFFCURVE",
"773 -33 OFFCURVE",
"671 -33 CURVE SMOOTH",
"462 -33 OFFCURVE",
"288 -20 OFFCURVE",
"198 -5 CURVE SMOOTH",
"153 2 OFFCURVE",
"114 11 OFFCURVE",
"83 21 CURVE",
"51 30 OFFCURVE",
"30 38 OFFCURVE",
"21 43 CURVE SMOOTH",
"12 48 OFFCURVE",
"5 53 OFFCURVE",
"0 58 CURVE",
"3 105 LINE SMOOTH",
"6 165 OFFCURVE",
"8 212 OFFCURVE",
"15 269 CURVE SMOOTH",
"18 298 OFFCURVE",
"22 317 OFFCURVE",
"26 328 CURVE SMOOTH",
"57 412 OFFCURVE",
"56 412 OFFCURVE",
"256 488 CURVE SMOOTH",
"373 531 OFFCURVE",
"443 560 OFFCURVE",
"466 573 CURVE SMOOTH",
"490 586 OFFCURVE",
"517 633 OFFCURVE",
"528 673 CURVE",
"513 704 OFFCURVE",
"499 738 OFFCURVE",
"488 773 CURVE",
"411 874 OFFCURVE",
"396 962 OFFCURVE",
"389 1047 CURVE SMOOTH",
"381 1131 OFFCURVE",
"397 1251 OFFCURVE",
"449 1322 CURVE SMOOTH",
"474 1355 OFFCURVE",
"506 1380 OFFCURVE",
"545 1396 CURVE",
"681 1651 OFFCURVE",
"948 1816 OFFCURVE",
"1247 1816 CURVE SMOOTH",
"1463 1816 OFFCURVE",
"1669 1726 OFFCURVE",
"1812 1583 CURVE SMOOTH",
"1955 1440 OFFCURVE",
"2045 1234 OFFCURVE",
"2045 1018 CURVE SMOOTH"
);
},
{
closed = 1;
nodes = (
"1466 421 OFFCURVE",
"1660 536 OFFCURVE",
"1766 720 CURVE SMOOTH",
"1819 811 OFFCURVE",
"1845 911 OFFCURVE",
"1845 1018 CURVE SMOOTH",
"1845 1234 OFFCURVE",
"1731 1429 OFFCURVE",
"1547 1537 CURVE SMOOTH",
"1455 1590 OFFCURVE",
"1355 1617 OFFCURVE",
"1247 1617 CURVE SMOOTH",
"1066 1617 OFFCURVE",
"899 1535 OFFCURVE",
"787 1400 CURVE",
"876 1368 OFFCURVE",
"929 1296 OFFCURVE",
"947 1190 CURVE SMOOTH",
"965 1084 OFFCURVE",
"954 1001 OFFCURVE",
"934 928 CURVE SMOOTH",
"917 865 OFFCURVE",
"875 795 OFFCURVE",
"839 755 CURVE SMOOTH",
"804 718 OFFCURVE",
"806 701 OFFCURVE",
"831 637 CURVE SMOOTH",
"844 604 OFFCURVE",
"859 583 OFFCURVE",
"877 573 CURVE SMOOTH",
"899 560 OFFCURVE",
"968.999 531 OFFCURVE",
"1086 488 CURVE SMOOTH",
"1186 450 OFFCURVE",
"1239 429 OFFCURVE",
"1246 424 CURVE",
"1247 424 OFFCURVE",
"1248 423 OFFCURVE",
"1249 422 CURVE SMOOTH",
"1250 421 OFFCURVE",
"1250 420 OFFCURVE",
"1251 420 CURVE SMOOTH"
);
},
{
closed = 1;
nodes = (
"1347 1061 LINE",
"1517 890 LINE",
"1377 749 LINE",
"1181 944 LINE",
"1158 965 OFFCURVE",
"1146 989.999 OFFCURVE",
"1146 1019 CURVE SMOOTH",
"1146 1417 LINE",
"1347 1417 LINE"
);
}
);
width = 2046;
}
);
unicode = F022;
},
{
glyphname = dashboard_datatable;
layers = (
{
layerId = "459508BE-3C3A-46DA-A777-BF75D91E99BF";
name = Regular;
paths = (
{
closed = 1;
nodes = (
"48 1605 LINE",
"687 1605 LINE",
"687 1827 LINE",
"48 1827 LINE"
);
},
{
closed = 1;
nodes = (
"798 1605 LINE",
"1471 1605 LINE",
"1471 1827 LINE",
"798 1827 LINE"
);
},
{
closed = 1;
nodes = (
"1582 1605 LINE",
"1993 1605 LINE",
"1993 1827 LINE",
"1582 1827 LINE"
);
},
{
closed = 1;
nodes = (
"48 1272 LINE",
"687 1272 LINE",
"687 1494 LINE",
"48 1494 LINE"
);
},
{
closed = 1;
nodes = (
"798 1272 LINE",
"1471 1272 LINE",
"1471 1494 LINE",
"798 1494 LINE"
);
},
{
closed = 1;
nodes = (
"1582 1272 LINE",
"1993 1272 LINE",
"1993 1494 LINE",
"1582 1494 LINE"
);
},
{
closed = 1;
nodes = (
"21 911 LINE",
"715 911 LINE",
"715 1188 LINE",
"21 1188 LINE"
);
},
{
closed = 1;
nodes = (
"771 911 LINE",
"1498 911 LINE",
"1498 1188 LINE",
"771 1188 LINE"
);
},
{
closed = 1;
nodes = (
"1554 911 LINE",
"2021 911 LINE",
"2021 1188 LINE",
"1554 1188 LINE"
);
},
{
closed = 1;
nodes = (
"659 966 LINE",
"76 966 LINE",
"76 1133 LINE",
"659 1133 LINE"
);
},
{
closed = 1;
nodes = (
"1443 966 LINE",
"826 966 LINE",
"826 1133 LINE",
"1443 1133 LINE"
);
},
{
closed = 1;
nodes = (
"1965 966 LINE",
"1609 966 LINE",
"1609 1133 LINE",
"1965 1133 LINE"
);
},
{
closed = 1;
nodes = (
"48 605 LINE",
"687 605 LINE",
"687 827 LINE",
"48 827 LINE"
);
},
{
closed = 1;
nodes = (
"798 605 LINE",
"1471 605 LINE",
"1471 827 LINE",
"798 827 LINE"
);
},
{
closed = 1;
nodes = (
"1582 605 LINE",
"1993 605 LINE",
"1993 827 LINE",
"1582 827 LINE"
);
},
{
closed = 1;
nodes = (
"21 244 LINE",
"715 244 LINE",
"715 522 LINE",
"21 522 LINE"
);
},
{
closed = 1;
nodes = (
"771 244 LINE",
"1498 244 LINE",
"1498 522 LINE",
"771 522 LINE"
);
},
{
closed = 1;
nodes = (
"1554 244 LINE",
"2021 244 LINE",
"2021 522 LINE",
"1554 522 LINE"
);
},
{
closed = 1;
nodes = (
"659 300 LINE",
"76 300 LINE",
"76 466 LINE",
"659 466 LINE"
);
},
{
closed = 1;
nodes = (
"1443 300 LINE",
"826 300 LINE",
"826 466 LINE",
"1443 466 LINE"
);
},
{
closed = 1;
nodes = (
"1965 300 LINE",
"1609 300 LINE",
"1609 466 LINE",
"1965 466 LINE"
);
},
{
closed = 1;
nodes = (
"48 -62 LINE",
"687 -62 LINE",
"687 161 LINE",
"48 161 LINE"
);
},
{
closed = 1;
nodes = (
"798 -62 LINE",
"1471 -62 LINE",
"1471 161 LINE",
"798 161 LINE"
);
},
{
closed = 1;
nodes = (
"1582 -62 LINE",
"1993 -62 LINE",
"1993 161 LINE",
"1582 161 LINE"
);
}
);
width = 2046;
}
);
unicode = F023;
},
{
glyphname = dashboard_pie;
lastChange = "2015-06-25 21:33:53 +0000";
layers = (
{
layerId = "459508BE-3C3A-46DA-A777-BF75D91E99BF";
name = Regular;
paths = (
{
closed = 1;
nodes = (
"1733 1775 LINE",
"1985 1775 LINE",
"1985 628 LINE",
"1733 628 LINE"
);
},
{
closed = 1;
nodes = (
"1108 1492 LINE",
"1108 1022 LINE",
"1005 1125 OFFCURVE",
"866 1192 OFFCURVE",
"711 1202 CURVE",
"711 628 LINE",
"1368 628 LINE",
"1368 1492 LINE"
);
},
{
closed = 1;
nodes = (
"1420 1323 LINE",
"1680 1323 LINE",
"1680 628 LINE",
"1420 628 LINE"
);
},
{
closed = 1;
nodes = (
"634 1202 LINE",
"313 1182 OFFCURVE",
"58 916 OFFCURVE",
"58 589 CURVE SMOOTH",
"58 250 OFFCURVE",
"333 -25 OFFCURVE",
"673 -25 CURVE SMOOTH",
"771 -25 OFFCURVE",
"863 -0.999999 OFFCURVE",
"946 40 CURVE",
"639 570 LINE",
"636 576 OFFCURVE",
"634 583 OFFCURVE",
"634 589 CURVE SMOOTH"
);
},
{
closed = 1;
nodes = (
"788 705 LINE",
"788 1114 LINE",
"991.999 1069 OFFCURVE",
"1152 908 OFFCURVE",
"1197 705 CURVE"
);
},
{
closed = 1;
nodes = (
"1012 78 LINE",
"1168 181 OFFCURVE",
"1273 354 OFFCURVE",
"1285 551 CURVE",
"739 551 LINE"
);
}
);
width = 2046;
}
);
unicode = F024;
},
{
glyphname = dashboard_survey;
lastChange = "2015-06-25 21:36:09 +0000";
layers = (
{
layerId = "459508BE-3C3A-46DA-A777-BF75D91E99BF";
name = Regular;
paths = (
{
closed = 1;
nodes = (
"1343 1695 LINE SMOOTH",
"1385 1695 OFFCURVE",
"1420 1665 OFFCURVE",
"1428 1625 CURVE",
"1657 1625 LINE SMOOTH",
"1692 1625 OFFCURVE",
"1721 1596 OFFCURVE",
"1721 1560 CURVE SMOOTH",
"1721 6 LINE SMOOTH",
"1721 -29 OFFCURVE",
"1692 -59 OFFCURVE",
"1657 -59 CURVE SMOOTH",
"410 -59 LINE SMOOTH",
"374 -59 OFFCURVE",
"345 -29 OFFCURVE",
"345 6 CURVE SMOOTH",
"345 1560 LINE SMOOTH",
"345 1596 OFFCURVE",
"374 1625 OFFCURVE",
"410 1625 CURVE SMOOTH",
"638 1625 LINE",
"646 1665 OFFCURVE",
"681 1695 OFFCURVE",
"723 1695 CURVE SMOOTH",
"934 1695 LINE",
"938 1747 OFFCURVE",
"981 1788 OFFCURVE",
"1033 1788 CURVE SMOOTH",
"1086 1788 OFFCURVE",
"1128 1747 OFFCURVE",
"1132 1695 CURVE",
"1132 1695 LINE"
);
},
{
closed = 1;
nodes = (
"473 1470 LINE",
"473 96 LINE",
"1593 96 LINE",
"1593 1470 LINE",
"1429 1470 LINE",
"1429 1423 LINE",
"637 1423 LINE",
"637 1470 LINE"
);
},
{
closed = 1;
nodes = (
"561 1058 OFFCURVE",
"621 997 OFFCURVE",
"695 997 CURVE SMOOTH",
"769 997 OFFCURVE",
"829 1058 OFFCURVE",
"829 1132 CURVE SMOOTH",
"829 1144 OFFCURVE",
"819 1153 OFFCURVE",
"808 1153 CURVE SMOOTH",
"796 1153 OFFCURVE",
"786 1144 OFFCURVE",
"786 1132 CURVE SMOOTH",
"786 1082 OFFCURVE",
"745 1041 OFFCURVE",
"695 1041 CURVE SMOOTH",
"645 1041 OFFCURVE",
"604 1082 OFFCURVE",
"604 1132 CURVE SMOOTH",
"604 1182 OFFCURVE",
"645 1223 OFFCURVE",
"695 1223 CURVE SMOOTH",
"707 1223 OFFCURVE",
"717 1232 OFFCURVE",
"717 1244 CURVE SMOOTH",
"717 1256 OFFCURVE",
"707 1266 OFFCURVE",
"695 1266 CURVE SMOOTH",
"621 1266 OFFCURVE",
"561 1206 OFFCURVE",
"561 1132 CURVE SMOOTH"
);
},
{
closed = 1;
nodes = (
"561 680 OFFCURVE",
"621 620 OFFCURVE",
"695 620 CURVE SMOOTH",
"769 620 OFFCURVE",
"829 680 OFFCURVE",
"829 754 CURVE SMOOTH",
"829 766 OFFCURVE",
"819 776 OFFCURVE",
"808 776 CURVE SMOOTH",
"796 776 OFFCURVE",
"786 766 OFFCURVE",
"786 754 CURVE SMOOTH",
"786 704 OFFCURVE",
"745 663 OFFCURVE",
"695 663 CURVE SMOOTH",
"645 663 OFFCURVE",
"604 704 OFFCURVE",
"604 754 CURVE SMOOTH",
"604 804 OFFCURVE",
"645 845 OFFCURVE",
"695 845 CURVE SMOOTH",
"707 845 OFFCURVE",
"717 855 OFFCURVE",
"717 867 CURVE SMOOTH",
"717 879 OFFCURVE",
"707 888 OFFCURVE",
"695 888 CURVE SMOOTH",
"621 888 OFFCURVE",
"561 828 OFFCURVE",
"561 754 CURVE SMOOTH"
);
},
{
closed = 1;
nodes = (
"829 473 OFFCURVE",
"769 533 OFFCURVE",
"695 533 CURVE SMOOTH",
"621 533 OFFCURVE",
"561 473 OFFCURVE",
"561 399 CURVE SMOOTH",
"561 325 OFFCURVE",
"621 265 OFFCURVE",
"695 265 CURVE SMOOTH",
"769 265 OFFCURVE",
"829 325 OFFCURVE",
"829 399 CURVE SMOOTH"
);
},
{
closed = 1;
nodes = (
"604 449 OFFCURVE",
"645 490 OFFCURVE",
"695 490 CURVE SMOOTH",
"745 490 OFFCURVE",
"786 449 OFFCURVE",
"786 399 CURVE SMOOTH",
"786 349 OFFCURVE",
"745 308 OFFCURVE",
"695 308 CURVE SMOOTH",
"645 308 OFFCURVE",
"604 349 OFFCURVE",
"604 399 CURVE SMOOTH"
);
},
{
closed = 1;
nodes = (
"1451 1098 OFFCURVE",
"1471 1118 OFFCURVE",
"1471 1142 CURVE SMOOTH",
"1471 1166 OFFCURVE",
"1451 1185 OFFCURVE",
"1428 1185 CURVE SMOOTH",
"953 1185 LINE SMOOTH",
"930 1185 OFFCURVE",
"910 1166 OFFCURVE",
"910 1142 CURVE SMOOTH",
"910 1118 OFFCURVE",
"930 1098 OFFCURVE",
"953 1098 CURVE SMOOTH",
"1428 1098 LINE SMOOTH"
);
},
{
closed = 1;
nodes = (
"1451 721 OFFCURVE",
"1471 741 OFFCURVE",
"1471 765 CURVE SMOOTH",
"1471 789 OFFCURVE",
"1451 808 OFFCURVE",
"1428 808 CURVE SMOOTH",
"953 808 LINE SMOOTH",
"930 808 OFFCURVE",
"910 789 OFFCURVE",
"910 765 CURVE SMOOTH",
"910 741 OFFCURVE",
"930 721 OFFCURVE",
"953 721 CURVE SMOOTH",
"1428 721 LINE SMOOTH"
);
},
{
closed = 1;
nodes = (
"1451 368 OFFCURVE",
"1471 388 OFFCURVE",
"1471 412 CURVE SMOOTH",
"1471 435 OFFCURVE",
"1451 455 OFFCURVE",
"1428 455 CURVE SMOOTH",
"953 455 LINE SMOOTH",
"930 455 OFFCURVE",
"910 435 OFFCURVE",
"910 412 CURVE SMOOTH",
"910 388 OFFCURVE",
"930 368 OFFCURVE",
"953 368 CURVE SMOOTH",
"1428 368 LINE SMOOTH"
);
},
{
closed = 1;
nodes = (
"707 1084 LINE",
"722 1103 LINE",
"841 1253 LINE SMOOTH",
"849 1262 OFFCURVE",
"847 1276 OFFCURVE",
"838 1283 CURVE SMOOTH",
"828 1291 OFFCURVE",
"815 1289 OFFCURVE",
"807 1280 CURVE SMOOTH",
"703 1148 LINE",
"675 1175 LINE SMOOTH",
"667 1183 OFFCURVE",
"653 1183 OFFCURVE",
"645 1174 CURVE SMOOTH",
"637 1165 OFFCURVE",
"637 1152 OFFCURVE",
"646 1143 CURVE SMOOTH",
"690 1101 LINE"
);
},
{
closed = 1;
nodes = (
"707 708 LINE",
"722 726 LINE",
"841 876 LINE SMOOTH",
"849 886 OFFCURVE",
"847 899 OFFCURVE",
"838 907 CURVE SMOOTH",
"828 914 OFFCURVE",
"815 913 OFFCURVE",
"807 903 CURVE SMOOTH",
"703 772 LINE",
"675 798 LINE SMOOTH",
"667 806 OFFCURVE",
"653 806 OFFCURVE",
"645 797 CURVE SMOOTH",
"637 789 OFFCURVE",
"637 775 OFFCURVE",
"646 767 CURVE SMOOTH",
"690 724 LINE"
);
}
);
width = 2046;
}
);
unicode = F025;
},
{
glyphname = dashboard_casemgt;
lastChange = "2015-06-25 21:38:43 +0000";
layers = (
{
layerId = "459508BE-3C3A-46DA-A777-BF75D91E99BF";
name = Regular;
paths = (
{
closed = 1;
nodes = (
"1766 1737 LINE",
"872 1737 LINE",
"872 1451 LINE",
"588 1451 LINE",
"588 1176 LINE",
"310 1176 LINE",
"310 892 LINE",
"172 892 LINE SMOOTH",
"144 892 OFFCURVE",
"124 870 OFFCURVE",
"124 842 CURVE SMOOTH",
"124 6 LINE SMOOTH",
"124 -22 OFFCURVE",
"139 -36 OFFCURVE",
"167 -36 CURVE SMOOTH",
"394 -36 LINE",
"620 -36 LINE",
"1336 -36 LINE SMOOTH",
"1363 -36 OFFCURVE",
"1380 -22 OFFCURVE",
"1380 6 CURVE SMOOTH",
"1380 283 LINE",
"1590 283 LINE",
"1590 570 LINE",
"1930 570 LINE",
"1930 1560 LINE",
"1932 1560 LINE"
);
},
{
closed = 1;
nodes = (
"940 1054 LINE",
"940 877 LINE",
"1114 877 LINE",
"1114 724 LINE",
"670 724 LINE",
"598 872 LINE",
"590 882 LINE",
"581 891 OFFCURVE",
"573 892 OFFCURVE",
"562 892 CURVE",
"563 892 LINE",
"432 893 LINE",
"432 1054 LINE"
);
},
{
closed = 1;
nodes = (
"1380 428 LINE",
"1380 669 LINE SMOOTH",
"1380 697 OFFCURVE",
"1363 724 OFFCURVE",
"1336 724 CURVE SMOOTH",
"1235 724 LINE",
"1235 999 LINE",
"1238 999 LINE",
"1061 1176 LINE",
"709 1176 LINE",
"709 1329 LINE",
"1291 1329 LINE",
"1291 1152 LINE",
"1468 1152 LINE",
"1468 428 LINE"
);
},
{
closed = 1;
nodes = (
"1590 703 LINE",
"1590 1273 LINE",
"1588 1273 LINE",
"1410 1451 LINE",
"993 1451 LINE",
"993 1616 LINE",
"1634 1616 LINE",
"1634 1430 LINE",
"1809 1430 LINE",
"1809 703 LINE"
);
}
);
width = 2046;
}
);
unicode = F026;
},
{
glyphname = dashboard_blankform;
layers = (
{
layerId = "459508BE-3C3A-46DA-A777-BF75D91E99BF";
name = Regular;
paths = (
{
closed = 1;
nodes = (
"1444 1725 LINE",
"374 1725 LINE",
"374 -45 LINE",
"1698 -45 LINE",
"1698 1472 LINE",
"1698 1472 LINE"
);
},
{
closed = 1;
nodes = (
"543 1556 LINE",
"1275 1556 LINE",
"1275 1303 LINE",
"1529 1303 LINE",
"1529 124 LINE",
"543 124 LINE"
);
}
);
width = 2046;
}
);
unicode = F027;
},
{
glyphname = qtype_external_case;
layers = (
{
layerId = "459508BE-3C3A-46DA-A777-BF75D91E99BF";
name = Regular;
paths = (
{
closed = 1;
nodes = (
"391 893 OFFCURVE",
"404 856 OFFCURVE",
"404 813 CURVE SMOOTH",
"404 435 LINE SMOOTH",
"404 390 OFFCURVE",
"391 354 OFFCURVE",
"434 354 CURVE SMOOTH",
"1621 354 LINE SMOOTH",
"1665 354 OFFCURVE",
"1651 390 OFFCURVE",
"1651 435 CURVE SMOOTH",
"1651 813 LINE SMOOTH",
"1651 856 OFFCURVE",
"1665 893 OFFCURVE",
"1621 893 CURVE SMOOTH",
"434 893 LINE SMOOTH"
);
},
{
closed = 1;
nodes = (
"97 1754 OFFCURVE",
"5 1658 OFFCURVE",
"5 1546 CURVE SMOOTH",
"5 170 LINE SMOOTH",
"5 55 OFFCURVE",
"97 -37 OFFCURVE",
"208 -37 CURVE SMOOTH",
"1836 -37 LINE SMOOTH",
"1951 -37 OFFCURVE",
"2040 55 OFFCURVE",
"2040 170 CURVE SMOOTH",
"2040 1097 LINE SMOOTH",
"2040 1213 OFFCURVE",
"1951 1306 OFFCURVE",
"1836 1306 CURVE SMOOTH",
"941 1306 LINE",
"941 1546 LINE SMOOTH",
"941 1658 OFFCURVE",
"848 1754 OFFCURVE",
"737 1754 CURVE SMOOTH",
"208 1754 LINE SMOOTH"
);
},
{
closed = 1;
nodes = (
"1743 1091 LINE SMOOTH",
"1793 1091 OFFCURVE",
"1833 1051 OFFCURVE",
"1833 1000 CURVE SMOOTH",
"1833 239 LINE SMOOTH",
"1833 190 OFFCURVE",
"1793 151 OFFCURVE",
"1743 151 CURVE SMOOTH",
"302 151 LINE SMOOTH",
"255 151 OFFCURVE",
"216 190 OFFCURVE",
"216 239 CURVE SMOOTH",
"216 1000 LINE SMOOTH",
"216 1051 OFFCURVE",
"255 1091 OFFCURVE",
"302 1091 CURVE SMOOTH"
);
},
{
closed = 1;
nodes = (
"1126 1642 LINE",
"1126 1480 LINE",
"1608 1480 LINE",
"1608 1480 LINE",
"1608 1596 OFFCURVE",
"1520 1642 OFFCURVE",
"1404 1642 CURVE SMOOTH"
);
}
);
width = 2046;
}
);
unicode = F028;
},
{
glyphname = qtype_external_case_data;
lastChange = "2015-06-30 18:25:32 +0000";
layers = (
{
layerId = "459508BE-3C3A-46DA-A777-BF75D91E99BF";
name = Regular;
paths = (
{
closed = 1;
nodes = (
"1399 1809 LINE",
"88 1809 LINE",
"88 -71 LINE",
"1967 -71 LINE",
"1967 1240 LINE"
);
},
{
closed = 1;
nodes = (
"460 1436 LINE",
"1028 1436 LINE",
"1028 868 LINE",
"1595 868 LINE",
"1595 301 LINE",
"460 301 LINE"
);
}
);
width = 2046;
}
);
unicode = F029;
},
{
glyphname = fd_expand;
lastChange = "2015-06-30 18:25:53 +0000";
layers = (
{
layerId = "459508BE-3C3A-46DA-A777-BF75D91E99BF";
name = Regular;
paths = (
{
closed = 1;
nodes = (
"73 1556 LINE",
"73 1784 LINE",
"1977 1784 LINE",
"1977 1556 LINE"
);
},
{
closed = 1;
nodes = (
"1024 1413 LINE",
"1310 921 LINE",
"743 921 LINE"
);
},
{
closed = 1;
nodes = (
"1977 147 LINE",
"1977 -82 LINE",
"73 -82 LINE",
"73 147 LINE"
);
},
{
closed = 1;
nodes = (
"1024 290 LINE",
"743 782 LINE",
"1310 782 LINE"
);
}
);
width = 2046;
}
);
unicode = F030;
},
{
glyphname = fd_collapse;
layers = (
{
layerId = "459508BE-3C3A-46DA-A777-BF75D91E99BF";
name = Regular;
paths = (
{
closed = 1;
nodes = (
"73 1555 LINE",
"73 1783 LINE",
"1977 1783 LINE",
"1977 1555 LINE"
);
},
{
closed = 1;
nodes = (
"1025 922 LINE",
"1309 1413 LINE",
"741 1413 LINE"
);
},
{
closed = 1;
nodes = (
"1977 147 LINE",
"1977 -81 LINE",
"73 -81 LINE",
"73 147 LINE"
);
},
{
closed = 1;
nodes = (
"1025 780 LINE",
"741 288 LINE",
"1309 288 LINE"
);
}
